<?xml version="1.0" encoding="UTF-8"?>
<svg width="80px" height="80px" viewBox="0 0 80 80" version="1.1" xmlns="http://www.w3.org/2000/svg" xmlns:xlink="http://www.w3.org/1999/xlink">
    <title>编组 6</title>
    <g id="页面-1" stroke="none" stroke-width="1" fill="none" fill-rule="evenodd">
        <g id="预览大图" transform="translate(-302, -1456)">
            <g id="编组-6" transform="translate(302, 1456)">
                <path d="M40,0.5 C50.9076238,0.5 60.7826238,4.9211881 67.9307179,12.0692821 C75.0788119,19.2173762 79.5,29.0923762 79.5,40 C79.5,50.9076238 75.0788119,60.7826238 67.9307179,67.9307179 C60.7826238,75.0788119 50.9076238,79.5 40,79.5 C29.0923762,79.5 19.2173762,75.0788119 12.0692821,67.9307179 C4.9211881,60.7826238 0.5,50.9076238 0.5,40 C0.5,29.0923762 4.9211881,19.2173762 12.0692821,12.0692821 C19.2173762,4.9211881 29.0923762,0.5 40,0.5 Z" id="矩形备份-11" stroke="#BFBFBF" fill-opacity="0.5" fill="#FFFFFF"></path>
                <g id="编组-5" transform="translate(22.2222, 21.1111)" fill="#404040" fill-rule="nonzero">
                    <polygon id="路径" fill-opacity="0" points="0 0 36.6666667 0 36.6666667 36.6666667 0 36.6666667"></polygon>
                    <path d="M18.3286345,1.01851852 C22.3112063,1.01851852 25.5466413,4.45190063 25.5466413,8.69464741 L25.5466413,9.56206695 L28.6105185,9.56206695 C30.7049911,9.56206695 32.4368181,11.1680458 32.5831118,13.2203959 L32.5925879,13.5126965 L32.5925879,22.7409265 C32.5944134,23.4486443 32.0643579,24.0324985 31.3860098,24.0764993 C30.7082278,24.1204634 30.1123766,23.6105171 30.0286023,22.9097158 L30.0182664,22.721253 L30.0188382,13.5014384 C30.0188382,12.8194784 29.5257288,12.2393048 28.8602315,12.1207769 L28.638739,12.1002254 L25.874897,12.0990021 L25.5444063,12.0990021 L25.544615,12.4337061 L25.5466414,15.6835147 C25.5466413,16.3598147 25.0172579,16.9057931 24.3672656,16.9057931 C23.7172734,16.9057931 23.18789,16.3598147 23.18789,15.6833035 L23.18789,12.0990021 L13.4673526,12.0990021 L13.4673526,15.6833035 C13.4673526,16.3598146 12.9379692,16.905793 12.287977,16.905793 C11.6379847,16.905793 11.1086013,16.3598146 11.1086013,15.6833035 L11.1086013,12.0990021 L7.03963647,12.0990021 C6.37251596,12.0885634 5.78961895,12.5704169 5.6541612,13.2445557 L5.63254067,13.4726697 L5.63131683,32.7286021 C5.63131683,33.4100507 6.12389222,33.9905247 6.78767337,34.1092236 L7.01170788,34.1298404 L18.4502177,34.1310384 C19.0858661,34.1364448 19.6147406,34.6502088 19.6585247,35.3127948 C19.7023482,35.9759776 19.2451224,36.5600516 18.6126062,36.6548586 L18.4276318,36.6666667 L7.03963647,36.6658837 C4.94293583,36.6658837 3.21129504,35.0617779 3.06501685,33.0096446 L3.05555556,32.7173598 L3.05555556,13.5014384 C3.05555556,11.4333595 4.67515885,9.71921007 6.75470264,9.57169904 L7.04848457,9.56403681 L10.7785015,9.5620669 L11.1086013,9.56188237 L11.1086013,8.69464741 C11.1086013,4.45158128 14.3443352,1.01851852 18.3286345,1.01851852 Z M26.8840374,24.5174565 C27.5331135,24.5174565 28.0634131,25.0643798 28.0634131,25.7399461 L28.0634131,29.3242474 L31.4028788,29.3242474 C32.0584668,29.3242474 32.5923865,29.8749043 32.5923865,30.5571866 L32.5923865,30.6261536 C32.5923865,31.3084359 32.0584668,31.8590927 31.4028788,31.8590927 L28.0611781,31.8590927 L28.0613868,32.1937966 L28.0634131,35.4436053 C28.0634131,36.1199052 27.5340297,36.6658836 26.8840374,36.6658836 C26.2340451,36.6658836 25.7046617,36.1199052 25.7046617,35.443394 L25.7046617,31.8590927 L22.3611432,31.8590927 C21.7055552,31.8590927 21.1716356,31.3084359 21.1716356,30.6261536 L21.1716356,30.5571866 C21.1716356,29.8749043 21.7055552,29.3242474 22.3611432,29.3242474 L25.700609,29.3242474 L25.700609,25.7399461 C25.700609,25.0641247 26.2311524,24.5174565 26.8840374,24.5174565 Z M18.3286345,3.55336378 C15.6403494,3.55336378 13.4673526,5.8588672 13.4673526,8.69464741 L13.4673526,9.56206695 L23.1845942,9.56206695 L23.1858612,9.2288623 L23.1878875,8.69593546 C23.1878875,5.85850057 21.0165812,3.55336378 18.3286345,3.55336378 Z" id="形状结合"></path>
                </g>
            </g>
        </g>
    </g>
</svg>