<?xml version="1.0" encoding="UTF-8"?>
<svg width="28px" height="28px" viewBox="0 0 28 28" version="1.1" xmlns="http://www.w3.org/2000/svg" xmlns:xlink="http://www.w3.org/1999/xlink">
    <title>编组 48</title>
    <g id="页面-1" stroke="none" stroke-width="1" fill="none" fill-rule="evenodd">
        <g id="查看收藏夹备份" transform="translate(-456, -280)" fill="#E02020" fill-rule="nonzero">
            <g id="编组-4" transform="translate(432, 174)">
                <g id="编组-48" transform="translate(24, 106)">
                    <path d="M4.27480916,8.93617021 C4.88864626,8.93617021 5.38625954,9.43151474 5.38625954,10.0425532 L5.38625954,22.3456114 C5.38625954,24.2712652 6.75416864,25.787234 8.37862595,25.787234 L19.3221374,25.787234 C20.9465947,25.787234 22.3145038,24.2712652 22.3145038,22.3456114 L22.3145038,10.0461899 C22.3145038,9.4351515 22.8121171,8.93980696 23.4259542,8.93980696 C24.0397913,8.93980696 24.5374046,9.4351515 24.5374046,10.0461899 L24.5374046,22.3456114 C24.5374046,25.4435459 22.230631,28 19.3221374,28 L8.37862595,28 C5.4701324,28 3.16335878,25.4435459 3.16335878,22.3456114 L3.16335878,10.0425532 C3.16335878,9.43151474 3.66097206,8.93617021 4.27480916,8.93617021 Z" id="路径"></path>
                    <path d="M26.8244275,6.59574468 L1.17557252,6.59574468 C0.534351145,6.59574468 0,6.06382979 0,5.42553191 C0,4.78723404 0.534351145,4.25531915 1.17557252,4.25531915 L26.8244275,4.25531915 C27.4656489,4.25531915 28,4.78723404 28,5.42553191 C28,6.06382979 27.4656489,6.59574468 26.8244275,6.59574468 Z" id="路径"></path>
                    <path d="M18.2748092,2.34042553 L9.72519084,2.34042553 C9.08396947,2.34042553 8.54961832,1.80851064 8.54961832,1.17021277 C8.54961832,0.531914894 9.08396947,0 9.72519084,0 L18.2748092,0 C18.9160305,0 19.4503817,0.531914894 19.4503817,1.17021277 C19.4503817,1.80851064 18.9160305,2.34042553 18.2748092,2.34042553 Z" id="路径"></path>
                    <path d="M10.259542,21.4893617 C9.61832061,21.4893617 9.08396947,20.9574468 9.08396947,20.3191489 L9.08396947,10.7446809 C9.08396947,10.106383 9.61832061,9.57446809 10.259542,9.57446809 C10.9007634,9.57446809 11.4351145,10.106383 11.4351145,10.7446809 L11.4351145,20.3191489 C11.4351145,20.9574468 10.9007634,21.4893617 10.259542,21.4893617 Z M17.740458,21.4893617 C17.0992366,21.4893617 16.5648855,20.9574468 16.5648855,20.3191489 L16.5648855,10.7446809 C16.5648855,10.106383 17.0992366,9.57446809 17.740458,9.57446809 C18.3816794,9.57446809 18.9160305,10.106383 18.9160305,10.7446809 L18.9160305,20.3191489 C18.9160305,20.9574468 18.3816794,21.4893617 17.740458,21.4893617 Z" id="形状"></path>
                </g>
            </g>
        </g>
    </g>
</svg>