<?xml version="1.0" encoding="UTF-8"?>
<svg width="80px" height="80px" viewBox="0 0 80 80" version="1.1" xmlns="http://www.w3.org/2000/svg" xmlns:xlink="http://www.w3.org/1999/xlink">
    <title>编组</title>
    <g id="页面-1" stroke="none" stroke-width="1" fill="none" fill-rule="evenodd">
        <g id="预览大图" transform="translate(-190, -1456)">
            <g id="编组" transform="translate(78, 1456)">
                <g transform="translate(112, 0)">
                    <path d="M40,0.5 C50.9076238,0.5 60.7826238,4.9211881 67.9307179,12.0692821 C75.0788119,19.2173762 79.5,29.0923762 79.5,40 C79.5,50.9076238 75.0788119,60.7826238 67.9307179,67.9307179 C60.7826238,75.0788119 50.9076238,79.5 40,79.5 C29.0923762,79.5 19.2173762,75.0788119 12.0692821,67.9307179 C4.9211881,60.7826238 0.5,50.9076238 0.5,40 C0.5,29.0923762 4.9211881,19.2173762 12.0692821,12.0692821 C19.2173762,4.9211881 29.0923762,0.5 40,0.5 Z" id="矩形备份-11" stroke="#BFBFBF" fill-opacity="0.5" fill="#FFFFFF"></path>
                    <g id="编组-39" transform="translate(18.1122, 18)" fill="#EE3939" fill-rule="nonzero">
                        <g id="收藏">
                            <polygon id="路径" fill-opacity="0" points="0 0 44 0 44 44 0 44"></polygon>
                            <path d="M22.8421667,8.09218601 C26.1248945,5.68412392 30.4827186,5.32632439 34.114264,7.16668948 C37.7458093,9.00705456 40.034138,12.7329375 40.0334787,16.804186 C40.0334787,22.0475193 36.957,26.8765193 33.3141667,30.554186 C29.6566667,34.2483527 25.1925,37.022186 21.9511667,38.100186 C21.6696778,38.1937209 21.3654889,38.1937209 21.084,38.100186 C17.8408333,37.022186 13.3766667,34.2483527 9.71916667,30.554186 C6.07633333,26.8765193 3,22.0475193 3,16.804186 C3.00048619,13.9393175 4.13901708,11.1919796 6.16512887,9.16655549 C8.19124065,7.14113133 10.9389648,6.00353307 13.8038333,6.00218601 C16.2375137,5.9990017 18.6003663,6.82108828 20.5065,8.33418601 C20.8632654,8.65811574 21.2005889,9.00095439 21.5167325,9.36271344 L21.384,9.217 Z M21.384,9.217 L21.286253,9.29297543 L22.364,10.464 L22.426,10.4260193 C22.118,10.077686 21.92,9.83935268 21.7605,9.65051934 C21.6807148,9.55331058 21.5994486,9.4573644 21.5167325,9.36271344 L21.384,9.217 Z" id="形状结合"></path>
                        </g>
                    </g>
                </g>
            </g>
        </g>
    </g>
</svg>