<?xml version="1.0" encoding="UTF-8"?>
<svg width="80px" height="80px" viewBox="0 0 80 80" version="1.1" xmlns="http://www.w3.org/2000/svg" xmlns:xlink="http://www.w3.org/1999/xlink">
    <title>编组 40</title>
    <g id="页面-1" stroke="none" stroke-width="1" fill="none" fill-rule="evenodd">
        <g id="批量选择" transform="translate(-526, -1456)">
            <g id="编组-3" transform="translate(526, 1456)">
                <path d="M40,0.5 C50.9076238,0.5 60.7826238,4.9211881 67.9307179,12.0692821 C75.0788119,19.2173762 79.5,29.0923762 79.5,40 C79.5,50.9076238 75.0788119,60.7826238 67.9307179,67.9307179 C60.7826238,75.0788119 50.9076238,79.5 40,79.5 C29.0923762,79.5 19.2173762,75.0788119 12.0692821,67.9307179 C4.9211881,60.7826238 0.5,50.9076238 0.5,40 C0.5,29.0923762 4.9211881,19.2173762 12.0692821,12.0692821 C19.2173762,4.9211881 29.0923762,0.5 40,0.5 Z" id="矩形备份-11" stroke="#BFBFBF" fill-opacity="0.5" fill="#FFFFFF"></path>
                <g id="收藏" transform="translate(18, 18)" fill="#404040" fill-rule="nonzero">
                    <polygon id="路径" fill-opacity="0" points="0 0 44 0 44 44 0 44"></polygon>
                    <path d="M14.2871667,6.98316667 C11.4222981,6.9826804 8.67457399,8.12027866 6.6484622,10.1457028 C4.62235041,12.171127 3.48381952,14.9184648 3.48333333,17.7833333 C3.48333333,23.0266667 6.55966667,27.8556667 10.2025,31.5333333 C13.86,35.2275 18.3241667,38.0013333 21.5673333,39.0793333 C21.8488222,39.1728682 22.1530111,39.1728682 22.4345,39.0793333 C25.6758333,38.0013333 30.14,35.2275 33.7975,31.5333333 C37.4403333,27.8556667 40.5166669,23.0266667 40.5166669,17.7833333 C40.5174713,13.7120848 38.2291426,9.98620189 34.5975973,8.1458368 C30.966052,6.30547171 26.6082278,6.66327124 23.3255,9.07133333 C23.4428333,9.20516667 23.5528333,9.33533333 23.6793333,9.48566667 C23.837,9.6745 24.0221667,9.8945 24.2861667,10.1951667 C24.5758333,10.5251667 24.8508333,10.868 25.0965,11.1851667 C27.5566529,9.46371802 30.7702734,9.25413019 33.4331765,10.6414603 C36.0960796,12.0287904 37.7658459,14.782545 37.7648333,17.7851667 C37.7648333,21.9688333 35.2715,26.1378333 31.8431667,29.5991667 C28.6036667,32.8698333 24.7408333,35.2953333 22,36.3165 C19.2591667,35.2953333 15.3963333,32.8698333 12.1568333,29.5991667 C8.7285,26.1378333 6.23516667,21.9688333 6.23516667,17.7833333 C6.23458565,14.2639384 8.51974978,11.15194 11.8779092,10.0988938 C15.2360686,9.04584757 18.8890385,10.2957754 20.8981667,13.1853333 C21.3125,13.739 22.2915,15.0883333 22.9148333,16.0856667 C23.1667355,16.5201775 23.6355085,16.7827725 24.1376112,16.7706365 C24.6397138,16.7585006 25.0952528,16.4735647 25.3258686,16.0273913 C25.5564845,15.5812179 25.5254821,15.044801 25.245,14.6281667 C24.8746667,14.036 24.4016667,13.3466667 23.98,12.749 C23.6421667,12.2861993 23.2849603,11.8378562 22.9093333,11.4051667 C22.6013333,11.0568333 22.4033333,10.8185 22.2438333,10.6296667 C21.8591066,10.1609229 21.4399432,9.72153666 20.9898333,9.31516667 L20.9898333,9.31333333 C19.0836997,7.8002356 16.720847,6.97814902 14.2871667,6.98133333 L14.2871667,6.98316667 Z" id="路径"></path>
                </g>
            </g>
        </g>
    </g>
</svg>