<svg xmlns="http://www.w3.org/2000/svg" xmlns:xlink="http://www.w3.org/1999/xlink" fill="none" version="1.1" width="36.6666259765625" height="36.666748046875" viewBox="0 0 36.6666259765625 36.666748046875"><g><g><path d="" fill="#FFFFFF" fill-opacity="0"/></g><g><path d="M11.10860558204651,8.694648567085267C11.10860558204651,4.4515785670852654,14.344355582046509,1.0185185670852661,18.32865558204651,1.0185185670852661C22.31125558204651,1.0185185670852661,25.546655582046508,4.451898567085266,25.546655582046508,8.694648567085267L25.546655582046508,9.562068567085266L28.61055558204651,9.562068567085266C30.70495558204651,9.562068567085266,32.436855582046505,11.168018567085266,32.58315558204651,13.220418567085266L32.59255558204651,13.512718567085265L32.59235558204651,22.740918567085266C32.59445558204651,23.448618567085266,32.06435558204651,24.032518567085265,31.38605558204651,24.076518567085266C30.708255582046508,24.120418567085267,30.112355582046508,23.610518567085265,30.028555582046508,22.909718567085267L30.01825558204651,22.721218567085266L30.01885558204651,13.501418567085267C30.01885558204651,12.819518567085266,29.525755582046507,12.239318567085267,28.86025558204651,12.120818567085266L28.63875558204651,12.100218567085266L25.874855582046507,12.099018567085267L25.54445558204651,12.099018567085267L25.54465558204651,12.433718567085267L25.546655582046508,15.683518567085265C25.546655582046508,16.359818567085266,25.01725558204651,16.905818567085266,24.367255582046507,16.905818567085266C23.71725558204651,16.905818567085266,23.18785558204651,16.359818567085266,23.18785558204651,15.683318567085266L23.18785558204651,12.099018567085267L13.467355582046508,12.099018567085267L13.467355582046508,15.683318567085266C13.467355582046508,16.359818567085266,12.937965582046509,16.905818567085266,12.287975582046508,16.905818567085266C11.63798558204651,16.905818567085266,11.10860558204651,16.359818567085266,11.10860558204651,15.683318567085266L11.10860558204651,12.099018567085267L7.039635582046509,12.099018567085267C6.372515582046509,12.088518567085266,5.789615582046508,12.570418567085266,5.654165582046509,13.244518567085267L5.632545582046509,13.472718567085266L5.631315582046509,32.72861856708526C5.631315582046509,33.41001856708527,6.123895582046509,33.99051856708527,6.787675582046509,34.109218567085264L7.011705582046509,34.129818567085266L18.45025558204651,34.13101856708526C19.08585558204651,34.136418567085265,19.61475558204651,34.65021856708527,19.65855558204651,35.312818567085266C19.702355582046508,35.97601856708527,19.245155582046507,36.560018567085265,18.612655582046507,36.654818567085265L18.42765558204651,36.666618567085266L7.039635582046509,36.665918567085264C4.942935582046509,36.665918567085264,3.211294582046509,35.06181856708527,3.065016862046509,33.00961856708527L3.055555582046509,32.717318567085265L3.055742204046509,13.501418567085267C3.055742204046509,11.433318567085266,4.675155582046509,9.719208567085266,6.754705582046508,9.571698567085265L7.048485582046508,9.564038567085266L10.77850558204651,9.562068567085266L11.10860558204651,9.561878567085266L11.10860558204651,8.694648567085267ZM23.18785558204651,8.695998567085265C23.18785558204651,5.858568567085266,21.016555582046507,3.553428567085266,18.32855558204651,3.553428567085266C15.640255582046509,3.553428567085266,13.467255582046509,5.858938567085266,13.467255582046509,8.694718567085266L13.467255582046509,9.562138567085267L23.18455558204651,9.562138567085267L23.185855582046507,9.228928567085266L23.18785558204651,8.695998567085265ZM26.884055582046507,24.517518567085265C26.231155582046508,24.517518567085265,25.700655582046508,25.064218567085266,25.700655582046508,25.740018567085265L25.700655582046508,29.324318567085268L22.361155582046507,29.324318567085268C21.705555582046507,29.324318567085268,21.171655582046508,29.875018567085267,21.171655582046508,30.557318567085265L21.171655582046508,30.626218567085267C21.171655582046508,31.308518567085265,21.705555582046507,31.859218567085264,22.361155582046507,31.859218567085264L25.70465558204651,31.859218567085264L25.70465558204651,35.44351856708526C25.70465558204651,36.12001856708527,26.23405558204651,36.665918567085264,26.884055582046507,36.665918567085264C27.53405558204651,36.665918567085264,28.063455582046508,36.12001856708527,28.063455582046508,35.44371856708526L28.06135558204651,32.19391856708526L28.06115558204651,31.859218567085264L31.40285558204651,31.859218567085264C32.058455582046506,31.859218567085264,32.59235558204651,31.308518567085265,32.59235558204651,30.626218567085267L32.59235558204651,30.557318567085265C32.59235558204651,29.875018567085267,32.058455582046506,29.324318567085268,31.40285558204651,29.324318567085268L28.063455582046508,29.324318567085268L28.063455582046508,25.740018567085265C28.063455582046508,25.064418567085266,27.533155582046508,24.517518567085265,26.884055582046507,24.517518567085265Z" fill-rule="evenodd" fill="#404040" fill-opacity="1"/></g></g></svg>