<svg xmlns="http://www.w3.org/2000/svg" xmlns:xlink="http://www.w3.org/1999/xlink" fill="none" version="1.1" width="53.3330078125" height="53.33837890625" viewBox="0 0 53.3330078125 53.33837890625"><defs><linearGradient x1="0.08145680278539658" y1="1" x2="0.8286027800420239" y2="0.11467007916671001" id="master_svg0_1_476"><stop offset="0%" stop-color="#667AFF" stop-opacity="1"/><stop offset="100%" stop-color="#9BCEFF" stop-opacity="1"/></linearGradient></defs><g><path d="M1.56304171875,1.562932421875C-0.52102328125,3.646992421875,-0.52102328125,7.025932421875,1.56304171875,9.110002421875L19.12291171875,26.669832421875L1.56441171875,44.228332421875C-0.51965828125,46.312332421875,-0.51965828125,49.691332421875,1.56441171875,51.775432421875C3.64847171875,53.859432421875,7.02741171875,53.859432421875,9.11148171875,51.775432421875L26.66991171875,34.216932421875L44.22291171875,51.769932421875C46.30701171875,53.853932421875,49.68591171875,53.853932421875,51.77001171875,51.769832421875C53.85401171875,49.685832421875,53.85411171875,46.306832421875,51.77001171875,44.222832421875L34.21521171875,26.668032421875L51.76901171875,9.113972421875C53.85311171875,7.029902421875,53.85311171875,3.650982421875,51.76901171875,1.566922421875C49.68491171875,-0.517154578125,46.30601171875,-0.517145578125,44.22191171875,1.566942421875L26.66811171875,19.120932421875L9.11011171875,1.562932421875C7.02605171875,-0.521136578125,3.64711171875,-0.521136578125,1.56304171875,1.562932421875Z" fill-rule="evenodd" fill="url(#master_svg0_1_476)" fill-opacity="1"/></g></svg>