<svg xmlns="http://www.w3.org/2000/svg" xmlns:xlink="http://www.w3.org/1999/xlink" fill="none" version="1.1" width="32" height="32" viewBox="0 0 32 32"><g><g><path d="M10.130286038879394,14.298642614074707C10.665724038879395,13.769314614074707,11.533137038879394,13.769314614074707,12.068567038879394,14.298642614074707L15.780567038879393,17.972846614074708L19.492567038879393,14.298642614074707C20.032907038879394,13.800254614074706,20.875007038879396,13.814960714074706,21.397207038879394,14.331905614074707C21.919507038879395,14.848850614074706,21.934407038879392,15.682336614074707,21.430907038879397,16.21719661407471L16.749717038879396,20.850676614074708C16.214277038879395,21.38000661407471,15.346867038879395,21.38000661407471,14.811427038879394,20.850676614074708L10.130286038879394,16.21719661407471C9.595514038879395,15.687206614074707,9.595514038879395,14.828628614074708,10.130286038879394,14.298642614074707Z" fill="#404040" fill-opacity="1"/></g><g><path d="M15.78057249420166,0C16.53799249420166,0,17.15200249420166,0.607758,17.15200249420166,1.35747L17.15200249420166,19.7647C17.15200249420166,20.5144,16.53799249420166,21.1222,15.78057249420166,21.1222C15.02315149420166,21.1222,14.40914249420166,20.5144,14.40914249420166,19.7647L14.40914249420166,1.35747C14.40914249420166,0.607758,15.02315149420166,0,15.78057249420166,0Z" fill="#404040" fill-opacity="1"/></g><g><path d="M1.37143,14.805429458618166C2.12885,14.80542945861817,2.74286,15.413187458618165,2.74286,16.162899458618163C2.74286,19.855199458618163,4.0064,23.129409458618163,6.25189,25.467829458618162C8.48457,27.795429458618166,11.7742,29.285029458618162,16,29.285029458618162C20.2277,29.285029458618162,23.5154,27.795429458618166,25.7481,25.467829458618162C27.9936,23.129409458618163,29.2571,19.857009458618165,29.2571,16.162899458618163C29.2571,15.413187458618165,29.8712,14.805429458618164,30.6286,14.805429458618164C31.386,14.805429458618164,32,15.413187458618165,32,16.162899458618163C32,20.470589458618164,30.5207,24.436199458618162,27.7376,27.337529458618164C24.9435,30.249729458618162,20.917,32.000029458618165,16,32.000029458618165C11.0848,32.000029458618165,7.05829,30.249729458618162,4.2624,27.337529458618164C1.48114,24.436199458618162,0,20.468779458618165,0,16.162899458618163C0,15.413187458618165,0.614009,14.805429458618164,1.37143,14.805429458618166Z" fill="#404040" fill-opacity="1"/></g></g></svg>