<?xml version="1.0" encoding="UTF-8"?>
<svg width="44px" height="44px" viewBox="0 0 44 44" version="1.1" xmlns="http://www.w3.org/2000/svg" xmlns:xlink="http://www.w3.org/1999/xlink">
    <title>历史</title>
    <g id="页面-1" stroke="none" stroke-width="1" fill="none" fill-rule="evenodd">
        <g id="Homepage" transform="translate(-614, -110)" fill-rule="nonzero">
            <g id="历史" transform="translate(614, 110)">
                <g id="编组备份" fill="#FFFFFF" fill-opacity="0">
                    <polygon id="路径" points="0 0 44 0 44 44 0 44"></polygon>
                </g>
                <g id="编组" transform="translate(5, 5)" fill="#171717">
                    <path d="M17.5,2.69230769 C9.32193736,2.69230769 2.69230769,9.32193736 2.69230769,17.5 C2.69230769,25.6780626 9.32193736,32.3076923 17.5,32.3076923 C25.6780626,32.3076923 32.3076923,25.6780626 32.3076923,17.5 C32.3076923,9.32193736 25.6780626,2.69230769 17.5,2.69230769 Z M0,17.5 C0,7.83461538 7.83461538,0 17.5,0 C27.1653846,0 35,7.83461538 35,17.5 C35,27.1653846 27.1653846,35 17.5,35 C7.83461538,35 0,27.1653846 0,17.5 Z" id="形状"></path>
                    <path d="M17.5,7.17948719 C18.2434602,7.17948719 18.8461538,7.7821808 18.8461538,8.52564104 L18.8461538,16.7802564 L23.631282,19.9697436 C24.037309,20.2340261 24.27001,20.6960989 24.2406026,21.1796672 C24.2111951,21.6632355 23.9242156,22.0937049 23.4891554,22.306838 C23.0540952,22.5199711 22.538066,22.4828905 22.1379487,22.2097436 L16.771282,18.6307692 C16.3867517,18.3831992 16.1542158,17.957334 16.1538462,17.5 L16.1538462,17.4784615 C16.1538462,17.5197436 16.1538462,17.5592308 16.1574359,17.6005128 M16.1538462,17.4784615 L16.1538462,8.52564104 C16.1538462,7.7821808 16.7565398,7.17948719 17.5,7.17948719" id="形状"></path>
                </g>
            </g>
        </g>
    </g>
</svg>