<?xml version="1.0" encoding="UTF-8"?>
<svg width="44px" height="44px" viewBox="0 0 44 44" version="1.1" xmlns="http://www.w3.org/2000/svg" xmlns:xlink="http://www.w3.org/1999/xlink">
    <title>编组 62</title>
    <g id="页面-1" stroke="none" stroke-width="1" fill="none" fill-rule="evenodd">
        <g id="Homepage" transform="translate(-682, -110)" fill-rule="nonzero">
            <g id="编组-62" transform="translate(682, 110)">
                <polygon id="路径" fill-opacity="0" fill="#FFFFFF" points="0 0 44 0 44 44 0 44"></polygon>
                <g id="编组" transform="translate(6, 5)" fill="#000000">
                    <path d="M0.0125727534,33.4249719 C0.00399263511,33.488629 -0.000203117044,33.5528099 7.55446945e-06,33.6170528 L7.55446945e-06,33.7200632 C0.0102407271,33.8433498 0.0348166965,33.9650071 0.0735642103,34.0821384 C0.2667204,34.6326812 0.78285175,35.0004903 1.36156027,34.9999995 C1.95533004,34.9999995 2.77512698,34.4786107 2.75360058,33.7997197 C2.75360058,26.6976147 8.42759995,21.1415708 15.4667316,21.1415708 C15.5510433,21.1415708 15.5510433,18.5670167 15.4667316,18.5670167 C7.14498548,18.5543625 0.351613499,25.0972424 0.0125727534,33.4249719 Z M23.7759207,24.1395535 C26.4218736,26.5473535 28.2462357,29.8692124 28.2462357,33.7870471 C28.2247093,34.4659381 29.0445063,34.9873271 29.6384554,34.9873271 C30.2171345,34.9878991 30.7332798,34.6201526 30.9264515,34.0696468 C30.9650196,33.9523344 30.9899543,33.8306772 31,33.7075716 L31,33.6043802 C31,33.5402929 30.9960535,33.4760245 30.9874429,33.4122993 C30.8161632,29.0418953 28.8126982,24.9508328 25.476506,22.1590021 C24.0701148,21.1288982 22.455635,22.9374638 23.7759207,24.1395535 L23.7759207,24.1395535 Z" id="形状"></path>
                    <path d="M15.4703194,0 C9.68940556,0 5.00310902,4.72942624 5.00310902,10.5635439 C5.00310902,16.3976616 9.68940556,21.1270878 15.4703194,21.1270878 C21.2512332,21.1270878 25.9375297,16.3974805 25.9375297,10.5635439 C25.9375297,4.72942624 21.2512332,0 15.4703194,0 L15.4703194,0 Z M15.4703194,18.4875596 C11.1349031,18.4875596 7.62036007,14.940671 7.62036007,10.5653543 C7.62036007,6.19003759 11.1349031,2.64314895 15.4703194,2.64314895 C19.8057356,2.64314895 23.3202786,6.19003759 23.3202786,10.5653543 C23.3202786,14.940671 19.8057356,18.4875596 15.4703194,18.4875596 Z" id="形状"></path>
                </g>
            </g>
        </g>
    </g>
</svg>