<svg xmlns="http://www.w3.org/2000/svg" xmlns:xlink="http://www.w3.org/1999/xlink" fill="none" version="1.1" width="80" height="80" viewBox="0 0 80 80"><defs><filter id="master_svg0_1_517" filterUnits="objectBoundingBox" color-interpolation-filters="sRGB" x="-0.23448275347999586" y="-0.2222222222222222" width="1.547126424786657" height="1.6222222222222222"><feFlood flood-opacity="0" result="BackgroundImageFix"/><feColorMatrix in="SourceAlpha" type="matrix" values="0 0 0 0 0 0 0 0 0 0 0 0 0 0 0 0 0 0 127 0"/><feOffset dy="4" dx="2"/><feGaussianBlur stdDeviation="3.5"/><feColorMatrix type="matrix" values="0 0 0 0 0.38823530077934265 0 0 0 0 0.11372549086809158 0 0 0 0 0.24705882370471954 0 0 0 0.5 0"/><feBlend mode="normal" in2="BackgroundImageFix" result="effect1_dropShadow"/><feBlend mode="normal" in="SourceGraphic" in2="effect1_dropShadow" result="shape"/></filter><linearGradient x1="0.8781511187553406" y1="0.15266089141368866" x2="-0.07403640389994394" y2="0.7573699632601979" id="master_svg1_1_519"><stop offset="6.428571790456772%" stop-color="#FF907A" stop-opacity="1"/><stop offset="99.28571581840515%" stop-color="#FF2323" stop-opacity="1"/></linearGradient></defs><g><g><path d="" fill="#FFFFFF" fill-opacity="0"/></g><g><g><g><path d="" fill="#FFFFFF" fill-opacity="0"/></g><g filter="url(#master_svg0_1_517)"><path d="M51.23349984741211,19.000000491592C47.395299847412105,19.000000491592,43.770299847412105,20.39618,40.99819984741211,22.97375C38.226199847412104,20.39618,34.601199847412104,19,30.762899847412108,19C22.55337984741211,19,15.72985284741211,25.76611,15.40999984741211,34.358000000000004L15.40999984741211,36.6134C16.58278984741211,53.1527,30.86959984741211,60.778,36.94679984741211,63.2482C38.226199847412104,63.7852,39.612199847412114,64,40.99819984741211,64C42.38429984741211,64,43.770299847412105,63.7852,45.049699847412114,63.2482C51.12689984741211,60.778,65.41369984741212,53.1527,66.58649984741211,36.6134L66.58649984741211,34.358000000000004C66.26659984741211,25.76611,59.44309984741211,19,51.23349984741211,19.000000491592Z" fill="url(#master_svg1_1_519)" fill-opacity="1"/></g></g></g></g></svg>