<?xml version="1.0" encoding="UTF-8"?>
<svg width="48px" height="50px" viewBox="0 0 48 50" version="1.1" xmlns="http://www.w3.org/2000/svg" xmlns:xlink="http://www.w3.org/1999/xlink">
    <title>编组</title>
    <g id="页面-1" stroke="none" stroke-width="1" fill="none" fill-rule="evenodd">
        <g id="刷新" transform="translate(-352, -524)" fill="#737373" fill-rule="nonzero">
            <g id="编组" transform="translate(352, 524)">
                <path d="M29.3377563,6.57904136 C29.3377563,10.2114437 26.3558504,13.1580827 22.668275,13.1580827 C18.9843185,13.1580827 16.0024125,10.2114437 16.0024125,6.57904136 C16.0024125,2.94663905 18.9879373,0 22.6646562,0 C26.3486128,0.00357168369 29.3377563,2.94663905 29.3377563,6.57904136 L29.3377563,6.57904136 Z M36.8069964,18.2870205 C38.344994,18.2870205 39.8829916,17.7084077 41.0518697,16.5547539 C43.3932449,14.2438746 43.3932449,10.4936067 41.0518697,8.18272734 C39.8829916,7.02550182 38.3413752,6.45046075 36.8069964,6.45046075 C35.2726176,6.45046075 33.7382388,7.02907351 32.5693607,8.18272734 C30.2279855,10.4936067 30.2279855,14.2438746 32.5693607,16.5547539 C33.7418577,17.7084077 35.2762364,18.2870205 36.8069964,18.2870205 L36.8069964,18.2870205 Z M42.6658625,21.0550754 C39.7237636,21.058647 37.3281062,23.4159583 37.3281062,26.3197371 C37.3281062,29.223516 39.7165259,31.5879706 42.6658625,31.5879706 C45.615199,31.5879706 48,29.2306593 48,26.3197371 C47.9963812,23.4123866 45.615199,21.0550754 42.6658625,21.0550754 L42.6658625,21.0550754 Z M36.814234,35.6668333 C35.6164053,35.6668333 34.4221954,36.1204372 33.5138721,37.0205015 C31.6899879,38.82063 31.6899879,41.7351239 33.5138721,43.5281092 C34.4221954,44.4281734 35.6164053,44.8746339 36.814234,44.8746339 C38.0012063,44.8746339 39.2026538,44.4281734 40.1145959,43.5209658 C41.9348613,41.7279806 41.9348613,38.8134867 40.1145959,37.0133581 C39.2026538,36.1204372 38.0012063,35.6668333 36.814234,35.6668333 L36.814234,35.6668333 Z M22.6718938,42.106579 C20.464415,42.106579 18.6767189,43.8852775 18.6767189,46.0532895 C18.6767189,48.2427316 20.464415,50 22.6755127,50 C24.8829916,50 26.6706876,48.2355883 26.6706876,46.0568612 C26.6706876,43.8781342 24.8793727,42.106579 22.6718938,42.106579 L22.6718938,42.106579 Z M8.52593486,36.991928 C7.67189385,36.991928 6.81785283,37.3205229 6.16646562,37.9598543 C4.86369119,39.2420887 4.86369119,41.3208086 6.16646562,42.6137581 C6.81785283,43.2566612 7.67189385,43.5781127 8.52231604,43.5781127 C9.37273824,43.5781127 10.2303981,43.2566612 10.8817853,42.6137581 C12.1809409,41.3243803 12.1845597,39.238517 10.8817853,37.9598543 C10.2376357,37.3133795 9.37997587,36.991928 8.52593486,36.991928 L8.52593486,36.991928 Z M2.66706876,23.6909779 C1.19420989,23.6909779 0,24.8660619 0,26.3233088 C0,27.7698407 1.19059107,28.9484963 2.66706876,28.9484963 C4.13992762,28.9484963 5.33775633,27.7769841 5.33414569,26.3233088 C5.33775633,24.8660619 4.13992762,23.6909779 2.66706876,23.6909779 L2.66706876,23.6909779 Z M8.52231604,14.3367383 L8.52231604,14.3367383 C8.64897467,14.3367383 8.77201448,14.2867348 8.8986731,14.2653047 C9.27503016,14.1902993 9.64414958,14.047432 9.93727382,13.7581256 C10.7189385,12.9902136 10.7189385,11.7401243 9.93727382,10.9650689 C9.5464415,10.5828988 9.03256936,10.3864562 8.52231604,10.3864562 C8.00844391,10.3864562 7.49819059,10.5828988 7.10735826,10.9650689 C6.32569361,11.7365526 6.32569361,12.9866419 7.10735826,13.7545539 C7.49457177,14.1438674 8.01206273,14.3367383 8.52231604,14.3367383 L8.52231604,14.3367383 Z" id="形状"></path>
            </g>
        </g>
    </g>
</svg>