<?xml version="1.0" encoding="UTF-8"?>
<svg width="33px" height="32px" viewBox="0 0 33 32" version="1.1" xmlns="http://www.w3.org/2000/svg" xmlns:xlink="http://www.w3.org/1999/xlink">
    <title>主按钮星星</title>
    <g id="页面-1" stroke="none" stroke-width="1" fill="none" fill-rule="evenodd">
        <g id="Homepage" transform="translate(-495, -258)" fill="#FFFFFF" fill-rule="nonzero">
            <g id="编组-6" transform="translate(48, 232)">
                <g id="编组-5" transform="translate(175, 21)">
                    <g id="主按钮星星" transform="translate(272.5, 5)">
                        <g id="编组" transform="translate(0, 8.2286)">
                            <path d="M12.5097345,0.780891412 C12.1499352,-0.261356808 11.5646113,-0.260178327 11.2093036,0.783719766 L9.20274897,6.67682973 C8.84744128,7.72072782 7.70019697,8.86526815 6.65318583,9.2202265 L0.786472008,11.2095017 C-0.260302734,11.5644601 -0.262430325,12.1513434 0.781744028,12.513844 L6.6132344,14.5380022 C7.65740875,14.9005029 8.80607146,16.0497571 9.16587073,17.092241 L11.2010297,22.990772 C11.5605925,24.0332559 12.1442616,24.0313704 12.4976781,22.9867652 L14.4846117,17.1139251 C14.8377918,16.0693199 15.9829085,14.9224226 17.028974,14.565343 L22.9876471,12.5305784 C24.0337126,12.1734988 24.0325306,11.5922722 22.9850467,11.2391994 L17.1206969,9.26147332 C16.0732129,8.90816485 14.9217134,7.76645287 14.5619141,6.72420465 L12.5097345,0.780891412 Z" id="路径"></path>
                        </g>
                        <g id="编组备份-3" transform="translate(19.2, 0)">
                            <path d="M6.73601088,0.420479991 C6.54227281,-0.140730589 6.2270984,-0.140096022 6.03577887,0.422002951 L4.95532637,3.59521601 C4.76400684,4.15731498 4.14625991,4.77360593 3.58248468,4.96473735 L0.423484927,6.03588554 C-0.140163011,6.22701696 -0.141308637,6.54303106 0.420939092,6.7382237 L3.56097237,7.82815506 C4.1232201,8.0233477 4.74173079,8.64217692 4.93546885,9.20351441 L6.03132366,12.3796465 C6.22493444,12.940984 6.53921781,12.9399687 6.729519,12.3774889 L7.79940629,9.21519043 C7.98958019,8.65271072 8.6061815,8.03515064 9.16944756,7.842877 L12.3779638,6.74723454 C12.9412299,6.5549609 12.9405934,6.24199273 12.3765636,6.05187661 L9.21883677,4.98694717 C8.65480695,4.79670415 8.03476876,4.18193616 7.8410307,3.62072558 L6.73601088,0.420479991 Z" id="路径"></path>
                        </g>
                    </g>
                </g>
            </g>
        </g>
    </g>
</svg>