<?xml version="1.0" encoding="UTF-8"?>
<svg width="36px" height="36px" viewBox="0 0 36 36" version="1.1" xmlns="http://www.w3.org/2000/svg" xmlns:xlink="http://www.w3.org/1999/xlink">
    <title>编组 3</title>
    <g id="页面-1" stroke="none" stroke-width="1" fill="none" fill-rule="evenodd">
        <g id="收货地址" transform="translate(-56, -488)">
            <g id="编组-4备份" transform="translate(32, 464)">
                <g id="编组-3" transform="translate(24, 24)">
                    <path d="M18,0 C27.9411255,-1.82615513e-15 36,8.0588745 36,18 C36,27.9411255 27.9411255,36 18,36 C8.0588745,36 6.08718376e-16,27.9411255 0,18 C-1.21743675e-15,8.0588745 8.0588745,1.21743675e-15 18,0 Z" id="Rectangle-7" fill="#EE3939"></path>
                    <g id="编组-5" fill="#FFFFFF">
                        <rect id="矩形备份" stroke="#FFFFFF" stroke-width="0.9" opacity="0" x="0.45" y="0.45" width="35.1" height="35.1"></rect>
                        <path d="M18,6.50000009 C22.0443811,6.49947882 25.690762,8.8914762 27.2385515,12.5604177 C28.786341,16.2293591 27.9306639,20.4525567 25.0705891,23.2604046 L19.2191146,29.0047397 C18.5460261,29.6650868 17.455353,29.6650868 16.7822644,29.0047397 L10.9294109,23.2604046 C8.06933613,20.4525567 7.21365904,16.2293591 8.76144851,12.5604177 C10.309238,8.8914762 13.9556189,6.49947882 18,6.50000009 Z M18,12.5593781 C15.8861541,12.5593781 14.1725435,14.2420094 14.1725435,16.3176403 C14.1725435,18.3932713 15.8861541,20.0759026 18,20.0759026 C20.1138459,20.0759026 21.8274565,18.3932713 21.8274565,16.3176403 C21.8274565,14.2420094 20.1138459,12.5593781 18,12.5593781 Z" id="形状结合" fill-rule="nonzero"></path>
                    </g>
                </g>
            </g>
        </g>
    </g>
</svg>