<?xml version="1.0" encoding="UTF-8"?>
<svg width="40px" height="40px" viewBox="0 0 40 40" version="1.1" xmlns="http://www.w3.org/2000/svg" xmlns:xlink="http://www.w3.org/1999/xlink">
    <title>编组 4</title>
    <g id="页面-1" stroke="none" stroke-width="1" fill="none" fill-rule="evenodd">
        <g id="个人主页" transform="translate(-40, -829)">
            <g id="编组-8" transform="translate(0, 797)">
                <g id="编组-4" transform="translate(40, 32)">
                    <rect id="矩形" stroke="#979797" fill="#D8D8D8" opacity="0" x="0.5" y="0.5" width="39" height="39"></rect>
                    <g id="编组" transform="translate(5, 5)" fill="#404040" fill-rule="nonzero">
                        <path d="M8.14285712,2.57142898 C6.95938981,2.57142898 5.99999999,3.53081876 5.99999999,4.71428602 L5.99999999,25.2857137 C5.99999999,26.469181 6.95938981,27.4285708 8.14285712,27.4285708 L25.2857143,27.4285708 C26.4691816,27.4285708 27.4285714,26.469181 27.4285714,25.2857137 L27.4285714,4.71428602 C27.4285714,3.53081876 26.4691816,2.57142898 25.2857143,2.57142898 L8.14285712,2.57142898 Z M4.80857143,1.38000043 C5.69299127,0.495995577 6.89239204,-0.000414481199 8.14285712,2.5967165e-07 L25.2857143,2.5967165e-07 C27.8893424,2.5967165e-07 30,2.11065803 30,4.71428602 L30,25.2857137 C30,27.8893417 27.8893424,30.0000003 25.2857143,30.0000003 L8.14285712,30.0000003 C5.53922902,30.0000003 3.42857142,27.8893417 3.42857142,25.2857137 L3.42857142,4.71428602 C3.42857142,3.46285749 3.92571426,2.26457183 4.80857143,1.38000043 Z M10.2857143,21.8571425 C10.2857143,21.1470621 10.8613482,20.5714282 11.5714286,20.5714282 L21.8571429,20.5714282 C22.5672233,20.5714282 23.1428572,21.1470621 23.1428572,21.8571425 C23.1428572,22.5672228 22.5672233,23.1428567 21.8571429,23.1428567 L11.5714286,23.1428567 C10.8613482,23.1428567 10.2857143,22.5672228 10.2857143,21.8571425 Z" id="形状"></path>
                        <path d="M16.7142857,11.1428572 C15.5308184,11.1428572 14.5714286,12.102247 14.5714286,13.2857142 C14.5714286,14.4691815 15.5308184,15.4285713 16.7142857,15.4285713 C17.8977531,15.4285713 18.8571429,14.4691815 18.8571429,13.2857142 C18.8571429,12.102247 17.8977531,11.1428572 16.7142857,11.1428572 L16.7142857,11.1428572 Z M12,13.2857142 C12,10.6820862 14.1106576,8.57142869 16.7142857,8.57142869 C19.3179138,8.57142869 21.4285714,10.6820862 21.4285714,13.2857142 C21.4285714,15.8893422 19.3179138,17.9999997 16.7142857,17.9999997 C14.1106576,17.9999997 12,15.8893422 12,13.2857142 L12,13.2857142 Z M0,8.14285729 C0,7.43277693 0.575633894,6.85714306 1.28571429,6.85714306 L6.42857143,6.85714306 C7.13865183,6.85714306 7.71428572,7.43277693 7.71428572,8.14285729 C7.71428572,8.85293765 7.13865183,9.42857152 6.42857143,9.42857152 L1.28571429,9.42857152 C0.575633894,9.42857152 0,8.85293765 0,8.14285729 Z M0,14.9999999 C0,14.2899195 0.575633894,13.7142856 1.28571429,13.7142856 L6.42857143,13.7142856 C7.13865183,13.7142856 7.71428572,14.2899195 7.71428572,14.9999999 C7.71428572,15.7100802 7.13865183,16.2857141 6.42857143,16.2857141 L1.28571429,16.2857141 C0.575633894,16.2857141 0,15.7100802 0,14.9999999 Z M0,21.8571425 C0,21.1470621 0.575633894,20.5714282 1.28571429,20.5714282 L6.42857143,20.5714282 C7.13865183,20.5714282 7.71428572,21.1470621 7.71428572,21.8571425 C7.71428572,22.5672228 7.13865183,23.1428567 6.42857143,23.1428567 L1.28571429,23.1428567 C0.575633894,23.1428567 0,22.5672228 0,21.8571425 Z" id="形状"></path>
                    </g>
                </g>
            </g>
        </g>
    </g>
</svg>