<?xml version="1.0" encoding="UTF-8"?>
<svg width="40px" height="40px" viewBox="0 0 40 40" version="1.1" xmlns="http://www.w3.org/2000/svg" xmlns:xlink="http://www.w3.org/1999/xlink">
    <title>编组 7</title>
    <g id="页面-1" stroke="none" stroke-width="1" fill="none" fill-rule="evenodd">
        <g id="账户设置" transform="translate(-40, -327)">
            <g id="编组-7" transform="translate(40, 327)">
                <rect id="矩形备份" stroke="#979797" fill="#D8D8D8" opacity="0" x="0.5" y="0.5" width="39" height="39"></rect>
                <g id="编组-4" transform="translate(4, 4)" fill="#F50C00" fill-rule="nonzero">
                    <g id="编组-3" transform="translate(21.3762, 15.7641) scale(-1, 1) rotate(90) translate(-21.3762, -15.7641)translate(15.4027, 5.031)">
                        <path d="M0.396995543,14.4457143 C0.926982055,13.9109424 1.78556108,13.9109424 2.3155476,14.4457143 L5.98975573,18.1577143 L9.66396386,14.4457143 C10.1988231,13.9422007 11.0323074,13.9570578 11.5492524,14.4793199 C12.0661974,15.0015821 12.0809032,15.8436393 11.5825159,16.384 L6.94903173,21.0651429 C6.41904523,21.5999147 5.56046623,21.5999147 5.03047972,21.0651429 L0.396995543,16.384 C-0.132331848,15.8485622 -0.132331848,14.9811521 0.396995543,14.4457143 Z" id="路径"></path>
                        <path d="M5.98975573,6.75477105e-13 C6.73946354,6.75477105e-13 7.34722179,0.614009486 7.34722179,1.37142857 L7.34722179,19.968 C7.34722179,20.7254191 6.73946354,21.3394286 5.98975573,21.3394286 C5.24004792,21.3394286 4.63228966,20.7254191 4.63228966,19.968 L4.63228966,1.37142857 C4.63228966,0.614009486 5.24004792,6.75477105e-13 5.98975573,6.75477105e-13 Z" id="路径"></path>
                    </g>
                    <path d="M-6.03128636,7.40271493 C-5.27386727,7.40271493 -4.65985779,8.01047319 -4.65985779,8.760181 C-4.65985779,12.4524887 -3.39631491,15.7266968 -1.15082923,18.0651584 C1.08185649,20.3927602 4.37145648,21.8823529 8.59728507,21.8823529 C12.8249422,21.8823529 16.1127136,20.3927602 18.3453994,18.0651584 C20.5908851,15.7266968 21.8544279,12.4542986 21.8544279,8.760181 C21.8544279,8.01047319 22.4684374,7.40271493 23.2258565,7.40271493 C23.9832756,7.40271493 24.5972851,8.01047319 24.5972851,8.760181 C24.5972851,13.0678733 23.1179708,17.0334842 20.3348851,19.9348416 C17.5408279,22.8470589 13.5143136,24.5972851 8.59728507,24.5972851 C3.68208506,24.5972851 -0.344429225,22.8470588 -3.14031493,19.9348416 C-5.92157207,17.0334842 -7.40271493,13.0660634 -7.40271493,8.760181 C-7.40271493,8.01047319 -6.78870545,7.40271493 -6.03128636,7.40271493 Z" id="路径" transform="translate(8.5973, 16) rotate(90) translate(-8.5973, -16)"></path>
                </g>
            </g>
        </g>
    </g>
</svg>