<?xml version="1.0" encoding="UTF-8"?>
<svg width="40px" height="40px" viewBox="0 0 40 40" version="1.1" xmlns="http://www.w3.org/2000/svg" xmlns:xlink="http://www.w3.org/1999/xlink">
    <title>编组 5</title>
    <g id="页面-1" stroke="none" stroke-width="1" fill="none" fill-rule="evenodd">
        <g id="账户设置" transform="translate(-40, -222)">
            <g id="编组-6" transform="translate(0, 190)">
                <g id="编组-2" transform="translate(40, 32)">
                    <rect id="矩形备份" stroke="#979797" fill="#D8D8D8" opacity="0" x="0.5" y="0.5" width="39" height="39"></rect>
                    <g id="编组" transform="translate(5, 4)" fill="#404040" fill-rule="nonzero">
                        <path d="M5.55956679,13.2240091 C4.84476534,13.2203851 4.26353791,12.6369196 4.2599278,11.9193658 L4.2599278,8.9186863 C4.26353791,3.99728199 8.23465704,0.00724801812 13.1407942,0 C17.3068592,0 20.9494585,2.93907135 21.8267148,6.98708947 C21.9025271,7.32774632 21.8375451,7.68652322 21.6498195,7.98369196 C21.4584838,8.27723669 21.1624549,8.48380521 20.8194946,8.55628539 C20.4801444,8.63238958 20.1227437,8.56715742 19.8303249,8.37870895 C19.5379061,8.19026048 19.33213,7.88946772 19.2599278,7.54518686 C18.6101083,4.66047565 16.0577617,2.61291053 13.1119134,2.60928652 C9.64259928,2.61291053 6.83393502,5.43601359 6.83393502,8.9186863 L6.83393502,11.9193658 C6.84476534,12.2636467 6.71841155,12.6006795 6.4765343,12.8471121 C6.23826715,13.0935447 5.90613718,13.2312571 5.5631769,13.2277028 L5.5631769,13.2240091 L5.55956679,13.2240091 Z" id="路径"></path>
                        <path d="M22.3140794,32 L3.70758123,32 C1.65703971,32 0,30.3691959 0,28.3759909 L0,14.3365798 C0,12.3433749 1.66064982,10.7125708 3.70758123,10.7125708 L17.0433213,10.7125708 C17.7617329,10.7125708 18.3429603,11.2996602 18.3465704,12.0208381 C18.3465704,12.7420159 17.7617329,13.3254813 17.0433213,13.3291053 L3.70758123,13.3291053 C3.12274368,13.3291053 2.60288809,13.8183465 2.60288809,14.3402039 L2.60288809,28.383239 C2.60288809,28.9377123 3.12274368,29.3943375 3.70758123,29.3943375 L22.3140794,29.3943375 C22.898917,29.3943375 23.4187726,28.9050963 23.4187726,28.383239 L23.4187726,17.8301246 C23.4223827,17.1089468 24.0036101,16.5254813 24.7220217,16.5254813 C25.4368231,16.5291053 26.0180505,17.1089468 26.0216606,17.8301246 L26.0216606,28.3796149 C26.0216606,30.3691959 24.3610108,32 22.3140794,32 L22.3140794,32 Z" id="路径"></path>
                        <path d="M13.2382671,25.2738392 C12.8953069,25.2702152 12.566787,25.1288788 12.3285199,24.8824462 C12.0794224,24.6360136 11.9386282,24.3026048 11.9386282,23.9510759 C11.9386282,23.599547 12.0794224,23.2661382 12.3285199,23.0197055 L28.7545126,6.46160815 C29,6.21155153 29.33213,6.07021518 29.6823105,6.07021518 C30.032491,6.07021518 30.3646209,6.21155153 30.6101083,6.46160815 C31.1299639,6.98708947 31.1299639,7.80249151 30.6101083,8.32434881 L14.1805054,24.8860702 C13.92524,25.1282188 13.5893981,25.2664313 13.2382671,25.2738392 L13.2382671,25.2738392 Z" id="路径"></path>
                    </g>
                </g>
            </g>
        </g>
    </g>
</svg>