<?xml version="1.0" encoding="UTF-8"?>
<svg width="40px" height="40px" viewBox="0 0 40 40" version="1.1" xmlns="http://www.w3.org/2000/svg" xmlns:xlink="http://www.w3.org/1999/xlink">
    <title>编组 7</title>
    <g id="页面-1" stroke="none" stroke-width="1" fill="none" fill-rule="evenodd">
        <g id="个人主页" transform="translate(-40, -1039)">
            <g id="编组-8" transform="translate(0, 797)">
                <g id="编组-9" transform="translate(0, 105)">
                    <g id="编组-7" transform="translate(40, 137)">
                        <rect id="矩形备份" stroke="#979797" fill="#D8D8D8" opacity="0" x="0.5" y="0.5" width="39" height="39"></rect>
                        <g id="编组" transform="translate(4, 4)" fill="#404040" fill-rule="nonzero">
                            <path d="M17.5524103,3.68246154 C17.1585641,2.05456412 14.8414359,2.05456412 14.4475897,3.68246154 C14.1422138,4.94150819 13.2540583,5.97908791 12.0571884,6.4750267 C10.8603184,6.97096549 9.4985911,6.86565427 8.39220512,6.19158973 L8.39056412,6.19158973 C6.95794873,5.31856408 5.32184615,6.95794869 6.19158973,8.38892308 C6.86627348,9.49589859 6.97174393,10.8585177 6.47544167,12.0561307 C5.9791394,13.2537438 4.94074603,14.1423347 3.6808205,14.4475897 C2.05620512,14.8414359 2.05620512,17.1585641 3.6808205,17.5524103 L3.68246154,17.5524103 C4.94158628,17.8582487 5.97909742,18.7467307 6.47499233,19.943819 C6.97088723,21.1409074 6.86559444,22.5027969 6.19158973,23.6094359 C5.31856408,25.0420513 6.95794869,26.6781538 8.38892308,25.8084103 C9.49589859,25.1337265 10.8585177,25.0282561 12.0561307,25.5245583 C13.2537438,26.0208606 14.1423347,27.059254 14.4475897,28.3191795 C14.8414359,29.9437949 17.1585641,29.9437949 17.5524103,28.3191795 L17.5524103,28.3175385 C17.8582487,27.0584137 18.7467307,26.0209026 19.943819,25.5250077 C21.1409074,25.0291128 22.5027969,25.1344056 23.6094359,25.8084103 C25.0420513,26.6814359 26.6781538,25.0420513 25.8084103,23.6110769 C25.1337265,22.5041014 25.0282561,21.1414823 25.5245583,19.9438693 C26.0208606,18.7462562 27.059254,17.8576653 28.3191795,17.5524103 C29.9437949,17.1585641 29.9437949,14.8414359 28.3191795,14.4475897 L28.3175385,14.4475897 C27.0584137,14.1417513 26.0209026,13.2532693 25.5250077,12.056181 C25.0291128,10.8590926 25.1344056,9.49720314 25.8084103,8.39056412 C26.6814359,6.95794873 25.0420513,5.32184615 23.6110769,6.19158973 C22.5041014,6.86627348 21.1414823,6.97174393 19.9438693,6.47544167 C18.7462562,5.9791394 17.8576653,4.94074603 17.5524103,3.6808205 L17.5524103,3.68246154 Z M12.0549743,3.10153846 C13.059282,-1.03384615 18.942359,-1.03384615 19.9450257,3.10153846 C20.064853,3.59799784 20.4147107,4.00730335 20.8864662,4.2029489 C21.3582218,4.39859444 21.8950672,4.35702064 22.3310769,4.09107692 C25.9643077,1.87569231 30.1259487,6.03569231 27.9105641,9.67056412 C27.6453,10.1062374 27.6039042,10.6423528 27.7991422,11.1135835 C27.9943802,11.5848142 28.4028031,11.9345629 28.8984615,12.0549743 C33.0338462,13.057641 33.0338462,18.942359 28.8984615,19.9450257 C28.4020022,20.064853 27.9926966,20.4147107 27.7970511,20.8864662 C27.6014056,21.3582218 27.6429794,21.8950672 27.9089231,22.3310769 C30.1243077,25.9643077 25.9643077,30.1259487 22.3294359,27.9105641 C21.8937626,27.6453 21.3576472,27.6039042 20.8864165,27.7991422 C20.4151858,27.9943802 20.0654371,28.4028031 19.9450257,28.8984615 C18.942359,33.0338462 13.057641,33.0338462 12.0549743,28.8984615 C11.935147,28.4020022 11.5852893,27.9926966 11.1135338,27.7970511 C10.6417782,27.6014056 10.1049328,27.6429794 9.66892308,27.9089231 C6.03569231,30.1243077 1.87405127,25.9643077 4.08943588,22.3294359 C4.35395041,21.8936193 4.39494277,21.357836 4.19980689,20.8868519 C4.004671,20.4158678 3.59676838,20.0660686 3.10153846,19.9450257 C-1.03384615,18.942359 -1.03384615,13.057641 3.10153846,12.0549743 C3.59799784,11.935147 4.00730335,11.5852893 4.2029489,11.1135338 C4.39859444,10.6417782 4.35702064,10.1049328 4.09107692,9.66892308 C1.87569231,6.03569231 6.03405127,1.87405127 9.67056412,4.08943588 C10.1060927,4.35545298 10.6425422,4.39725446 11.1140209,4.20191365 C11.5854997,4.00657284 11.9351977,3.59762695 12.0549743,3.10153846" id="形状"></path>
                            <path d="M16,12.3076923 C13.9607948,12.3076923 12.3076923,13.9607948 12.3076923,16 C12.3076923,18.0392052 13.9607948,19.6923077 16,19.6923077 C18.0392052,19.6923077 19.6923077,18.0392052 19.6923077,16 C19.6923077,13.9607948 18.0392052,12.3076923 16,12.3076923 Z M9.84615385,16 C9.84615385,12.6013246 12.6013246,9.84615385 16,9.84615385 C19.3986754,9.84615385 22.1538462,12.6013246 22.1538462,16 C22.1538462,19.3986754 19.3986754,22.1538462 16,22.1538462 C12.6013246,22.1538462 9.84615385,19.3986754 9.84615385,16 L9.84615385,16 Z" id="形状"></path>
                        </g>
                    </g>
                </g>
            </g>
        </g>
    </g>
</svg>