<?xml version="1.0" encoding="UTF-8"?>
<svg width="40px" height="40px" viewBox="0 0 40 40" version="1.1" xmlns="http://www.w3.org/2000/svg" xmlns:xlink="http://www.w3.org/1999/xlink">
    <title>编组 5</title>
    <g id="页面-1" stroke="none" stroke-width="1" fill="none" fill-rule="evenodd">
        <g id="个人主页" transform="translate(-40, -934)">
            <g id="编组-8" transform="translate(0, 797)">
                <g id="编组-9" transform="translate(0, 105)">
                    <g id="编组-5" transform="translate(40, 32)">
                        <rect id="矩形备份" stroke="#979797" fill="#D8D8D8" opacity="0" x="0.5" y="0.5" width="39" height="39"></rect>
                        <g id="编组" transform="translate(6, 4)" fill="#404040" fill-rule="nonzero">
                            <path d="M14.0017087,2.39908255 C9.30864079,2.39846611 5.07740909,5.22719351 3.28136641,9.56600897 C1.48532373,13.9048244 2.47824466,18.8990825 5.79705287,22.2195957 L12.5886579,29.0127294 C13.3697045,29.7936424 14.6353131,29.7936424 15.4163597,29.0127294 L22.2063645,22.2195957 C25.5251727,18.8990825 26.5180936,13.9048244 24.7220509,9.56600897 C22.9260082,5.22719351 18.6947765,2.39846611 14.0017087,2.39908255 Z M6.22272841,2.3590477 C12.2106229,-1.64125789 20.2540748,-0.445652557 24.8214939,5.12362984 C29.388913,10.6929122 28.9915451,18.8205591 23.9026654,23.9170784 L17.1126607,30.7118136 C15.3944316,32.4293955 12.610586,32.4293955 10.892357,30.7118136 L4.10075189,23.9170784 C1.13655185,20.9504797 -0.343432906,16.8108988 0.0675125912,12.6359347 C0.478458089,8.46097068 2.73709561,4.68989859 6.22272841,2.3590477 Z M14.0017087,10.4060767 C12.0131307,10.4060767 10.4010698,12.0192607 10.4010698,14.009224 C10.4010698,15.9991873 12.0131307,17.6123713 14.0017087,17.6123713 C15.9902866,17.6123713 17.6023475,15.9991873 17.6023475,14.009224 C17.6023475,12.0192607 15.9902866,10.4060767 14.0017087,10.4060767 L14.0017087,10.4060767 Z M8.00064387,14.009224 C8.00064387,11.8637564 9.1444403,9.88126254 11.0011762,8.80852872 C12.8579122,7.7357949 15.1455052,7.7357949 17.0022411,8.80852872 C18.858977,9.88126254 20.0027735,11.8637564 20.0027735,14.009224 C20.0027735,17.3258295 17.3160052,20.0144694 14.0017087,20.0144694 C10.6874121,20.0144694 8.00064387,17.3258295 8.00064387,14.009224 Z" id="形状"></path>
                        </g>
                    </g>
                </g>
            </g>
        </g>
    </g>
</svg>