<?xml version="1.0" encoding="UTF-8"?>
<svg width="160px" height="160px" viewBox="0 0 160 160" version="1.1" xmlns="http://www.w3.org/2000/svg" xmlns:xlink="http://www.w3.org/1999/xlink">
    <title>编组</title>
    <g id="页面-1" stroke="none" stroke-width="1" fill="none" fill-rule="evenodd">
        <g id="编组" fill-rule="nonzero">
            <path d="M40,149.282032 C64.752086,163.572656 95.247914,163.572656 120,149.282032 C144.752087,134.991408 160,108.581247 160,80 C160,35.8172197 124.18278,0 80,0 C35.81722,0 0,35.8172197 0,80 C0,108.581247 15.2479133,134.991408 40,149.282032 Z" id="路径" fill="#DFE1ED"></path>
            <path d="M54.7368421,63.1578943 C54.7368421,72.1835513 59.5519726,80.5236025 67.3684209,85.0364311 C75.1848692,89.5492597 84.8151308,89.5492597 92.6315791,85.0364311 C100.448027,80.5236025 105.263158,72.1835513 105.263158,63.1578943 C105.263158,49.2054375 93.9524568,37.8947366 80,37.8947366 C66.0475432,37.8947366 54.7368421,49.2054375 54.7368421,63.1578943 Z" id="路径" fill="#F5F6FD"></path>
            <path d="M80,147.764209 C115.452632,147.764209 130.526316,129.52421 130.526316,117.894736 C130.526316,106.273683 107.907368,96.8421045 80,96.8421045 C52.0926316,96.8421045 29.4736842,106.273683 29.4736842,117.894736 C29.4736842,129.515789 47.1410526,147.764209 80,147.764209 Z" id="路径" fill="#F5F6FD"></path>
        </g>
    </g>
</svg>