<?xml version="1.0" encoding="UTF-8"?>
<svg width="44px" height="44px" viewBox="0 0 44 44" version="1.1" xmlns="http://www.w3.org/2000/svg" xmlns:xlink="http://www.w3.org/1999/xlink">
    <title>upload</title>
    <g id="页面-1" stroke="none" stroke-width="1" fill="none" fill-rule="evenodd">
        <g id="Input-page-取色回显" transform="translate(-93, -533)" fill="#BFBFBF" fill-rule="nonzero">
            <g id="编组-14" transform="translate(16, -420)">
                <g id="编组-13" transform="translate(0, 812)">
                    <g id="upload" transform="translate(82.25, 146.7499)">
                        <path d="M16.75,7.10542736e-15 C17.6681702,7.04921147e-15 18.4211864,0.707110273 18.4941926,1.60647279 L18.4999938,1.75 L18.4998348,16.7257077 C18.4999448,16.733792 18.5,16.7418896 18.5,16.75 L18.499,16.7710592 L18.4999938,31.75 C18.4999938,32.7164983 17.7164949,33.5 16.75,33.5 C15.8318298,33.5 15.0788136,32.7928897 15.0058074,31.8935272 L15.0000062,31.75 L15,18.4990592 L1.75,18.4999938 C0.783501688,18.4999938 0,17.7164949 0,16.75 C0,15.8318298 0.707110273,15.0788136 1.60647279,15.0058074 L1.75,15.0000062 L15,14.9990592 L15.0000062,1.75 C15.0000062,0.783501688 15.7835051,7.16461124e-15 16.75,7.10542736e-15 Z M32.25,15.0000062 C33.2164983,15.0000062 34,15.7835051 34,16.75 C34,17.6681702 33.2928897,18.4211864 32.3935272,18.4941926 L32.25,18.4999938 L22.75,18.4999938 C21.7835017,18.4999938 21,17.7164949 21,16.75 C21,15.8318298 21.7071103,15.0788136 22.6064728,15.0058074 L22.75,15.0000062 L32.25,15.0000062 Z" id="形状结合"></path>
                    </g>
                </g>
            </g>
        </g>
    </g>
</svg>