<?xml version="1.0" encoding="UTF-8"?>
<svg width="44px" height="44px" viewBox="0 0 44 44" version="1.1" xmlns="http://www.w3.org/2000/svg" xmlns:xlink="http://www.w3.org/1999/xlink">
    <title>icon/关闭/基础</title>
    <g id="icon/关闭/基础" stroke="none" stroke-width="1" fill="none" fill-rule="evenodd">
        <path d="M34.1016452,9.5316903 C34.7750742,10.2050748 34.8087234,11.2759652 34.2026818,11.9891493 L34.1016452,12.0986539 L12.0986985,34.1016452 C11.3898375,34.8104616 10.2405513,34.8104616 9.5316903,34.1016452 C8.85826123,33.4282161 8.82461206,32.3572812 9.43069822,31.6441416 L9.5316903,31.5345924 L19.2496595,21.8165786 L9.53164573,12.0986539 C8.82278476,11.389793 8.82278476,10.2405067 9.53164573,9.53164573 C10.2050748,8.85821666 11.2759652,8.82456749 11.9891493,9.43065366 L12.0986539,9.53164573 L21.8166232,19.2495704 L31.534637,9.53164573 C32.2434979,8.82278476 33.3927842,8.82278476 34.1016452,9.53164573 L34.1016452,9.5316903 Z M34.4683543,31.9013015 C35.1772152,32.6101625 35.1772152,33.7594933 34.4683543,34.4683543 C33.7949252,35.1417833 32.7240348,35.1754325 32.0108507,34.5693463 L31.9013461,34.4683543 L25.2316796,27.7986878 C24.5228632,27.0898268 24.5228632,25.9405406 25.2316796,25.2316796 C25.9051087,24.5582505 26.9760436,24.5246013 27.6891832,25.1306429 L27.7987324,25.2316796 L34.4683988,31.9013461 L34.4683543,31.9013015 Z" id="关闭" fill="#404040" fill-rule="nonzero"></path>
    </g>
</svg>