<?xml version="1.0" encoding="UTF-8"?>
<svg width="42px" height="42px" viewBox="0 0 42 42" version="1.1" xmlns="http://www.w3.org/2000/svg" xmlns:xlink="http://www.w3.org/1999/xlink">
    <title>编组 12</title>
    <g id="页面-1" stroke="none" stroke-width="1" fill="none" fill-rule="evenodd">
        <g id="Input-page-完整页面" transform="translate(-121, -1956)" fill="#171717">
            <g id="编组-12" transform="translate(122, 1957.0087)">
                <g id="编组-18" transform="translate(0, 0)">
                    <rect id="矩形" fill-opacity="0" x="0" y="0.0106937869" width="39.8351286" height="39.961204"></rect>
                    <path d="M11.3801511,26.3011366 C10.801195,26.3011366 10.3318583,25.8303145 10.3318583,25.249526 C10.3318583,24.6687375 10.801195,24.1979154 11.3801511,24.1979154 L15.8988583,24.1978413 L15.8991084,9.56282369 C15.8991084,8.19491183 16.5428352,6.94125195 17.5902837,6.14293269 L17.6460884,6.10109676 L17.6462631,3.95423366 C17.6462631,2.56912947 18.7508417,1.44282994 20.1245477,1.41343028 L20.1796375,1.4128413 C21.5787816,1.4128413 22.7130119,2.55066141 22.7130119,3.95415844 L22.7131866,6.10109676 L22.7691658,6.14306583 C23.7971191,6.92660984 24.4361893,8.14871768 24.459506,9.48695269 L24.4601667,9.56282369 L24.4598583,24.1978413 L28.6705797,24.1979154 C29.2495359,24.1979154 29.7188726,24.6687375 29.7188726,25.249526 C29.7188726,25.8303145 29.2495359,26.3011366 28.6705797,26.3011366 L11.3801511,26.3011366 Z M20.1796375,3.51606256 C19.9384058,3.51606256 19.7428488,3.71223844 19.7428488,3.95424113 L19.7428295,6.68212839 C19.7428267,7.07497144 19.5245535,7.4350584 19.1768628,7.61580797 C18.4567563,7.99016061 17.9956941,8.73499432 17.9956941,9.56282369 L17.9956941,24.1977383 L22.363581,24.1977383 L22.363581,9.56282369 C22.363581,8.75429278 21.9237655,8.02493129 21.2323431,7.64258601 L21.1825304,7.61586941 C20.8348928,7.43512035 20.6166487,7.07508276 20.6166207,6.68228721 L20.6164262,3.95423366 C20.6164262,3.71223844 20.4208693,3.51606256 20.1796375,3.51606256 Z M15.5496774,27.3527878 C16.1286336,27.3527878 16.5979703,27.8236099 16.5979703,28.4043984 L16.5979703,32.873526 C16.5979703,34.8578868 18.2015373,36.466529 20.1796375,36.466529 C22.1577377,36.466529 23.7613048,34.8578868 23.7613048,32.873526 L23.7613048,28.4052028 C23.7613048,27.8244142 24.2306415,27.3535921 24.8095977,27.3535921 C25.3885538,27.3535921 25.8578905,27.8244142 25.8578905,28.4052028 L25.8578905,32.873526 C25.8578905,36.0194638 23.3156501,38.5697503 20.1796375,38.5697503 C17.043625,38.5697503 14.5013845,36.0194638 14.5013845,32.873526 L14.5013845,28.4043984 C14.5013845,27.8236099 14.9707212,27.3527878 15.5496774,27.3527878 Z" id="形状结合" stroke="#171717" stroke-width="0.3" fill-rule="nonzero" transform="translate(20.0254, 19.9913) rotate(-135) translate(-20.0254, -19.9913)"></path>
                </g>
                <polygon id="路径-7" points="11.2624121 23.8711112 9.24810211 27.2760714 8.76918624 29.3056784 7.26340571 31.1870215 8.13337738 32.6965282 10.255159 32.0118864 11.2624121 30.335877 13.4222403 30.335877 15.578606 28.2838197 20.0253654 23.8711112"></polygon>
            </g>
        </g>
    </g>
</svg>