<?xml version="1.0" encoding="UTF-8"?>
<svg width="37px" height="36px" viewBox="0 0 37 36" version="1.1" xmlns="http://www.w3.org/2000/svg" xmlns:xlink="http://www.w3.org/1999/xlink">
    <title>编组 5</title>
    <g id="页面-1" stroke="none" stroke-width="1" fill="none" fill-rule="evenodd">
        <g id="Input-page-首屏-选择+上传" transform="translate(-331, -336)" fill="#E5E5E5">
            <g id="编组-9" transform="translate(254, 264)">
                <g id="编组-7" transform="translate(22.5, 72)">
                    <g id="coming-soon" transform="translate(55, 0)">
                        <rect id="矩形" opacity="0" x="0" y="0" width="36" height="36" rx="4.5"></rect>
                        <path d="M25.950431,28.4952532 C26.4610564,28.4952532 26.875,28.9160488 26.875,29.4351266 C26.875,29.9542043 26.4610564,30.375 25.950431,30.375 L9.92456897,30.375 C9.41394363,30.375 9,29.9542043 9,29.4351266 C9,28.9160488 9.41394363,28.4952532 9.92456897,28.4952532 L25.950431,28.4952532 Z M12.544181,26.6155063 C12.544181,27.1345841 12.1302374,27.5553797 11.6196121,27.5553797 C11.1089867,27.5553797 10.6950431,27.1345841 10.6950431,26.6155063 L10.6972004,26.5509683 L10.7033642,26.4873702 L10.7015151,26.5506551 L10.7052134,26.4522816 C10.8294138,23.5148639 12.0954569,20.8756993 14.0478384,19.155731 C14.2213626,18.9824528 14.4548777,18.8853607 14.6981185,18.8853607 C15.0826242,18.8853607 15.4269696,19.1273517 15.5628941,19.4929847 C15.6988186,19.8586176 15.5979461,20.2716028 15.3095668,20.5301392 C13.7384159,21.887943 12.6893384,24.0145633 12.5580496,26.4175063 L12.5518858,26.5459557 L12.5494203,26.615193 M23.6334612,26.615193 L23.6313039,26.5459557 C23.4907694,23.1000664 21.4631896,20.2036899 18.7079741,19.2844937 C18.5218276,19.2108702 18.3483168,19.1453924 18.1788125,19.081481 L18.0456746,19.0313544 L17.8468923,18.9558513 C17.1106272,18.6745158 16.3398448,18.3471266 14.8112241,17.4467278 C12.4239871,15.7765728 10.8334203,12.8350823 10.7033642,9.51294303 C10.6668316,9.24375627 10.7466954,8.97167068 10.9223613,8.7668485 C11.0980272,8.56202633 11.3523005,8.44462018 11.6196121,8.44462018 C12.1091891,8.44462018 12.5139183,8.8325306 12.5426401,9.32935444 L12.544181,9.38418037 L12.5491121,9.38449367 L12.552194,9.4540443 C12.6760862,12.5004873 14.2749741,15.1174082 16.5478729,16.3182532 C16.5836229,16.3401836 16.6230711,16.3618006 16.6665259,16.3834177 C18.1372069,17.1140127 19.7206853,17.4498607 21.5750625,18.6998924 C23.8491939,20.3926044 25.3534677,23.2604715 25.4795172,26.4873702 C25.5090442,26.9915654 25.1412862,27.4293306 24.6467938,27.4786128 C24.1523014,27.5278949 23.7079109,27.1710701 23.6405496,26.6706456 L23.6390086,26.6155063 M24.5635776,8.44462025 C24.830712,8.44462025 25.0847855,8.56209646 25.26036,8.76676076 C25.4359344,8.97142507 25.5158475,9.24328319 25.4795172,9.51231645 L25.4813664,9.44903163 L25.4782845,9.54740507 C25.3497694,12.5835095 24.0020561,15.2984905 21.9421164,17.0112532 C21.7689248,17.1783677 21.5392551,17.2715981 21.3004655,17.2715981 C20.9028987,17.2715981 20.5498704,17.0131532 20.4237506,16.6298801 C20.2976307,16.246607 20.4266598,15.8242846 20.7441832,15.5810791 L20.7423341,15.5791994 C22.3852931,14.2289146 23.4904612,12.0527943 23.6251401,9.58218039 L23.6313039,9.4540443 L23.633153,9.38449367 L23.6390086,9.38418037 C23.6391788,8.86522497 24.0530726,8.44462025 24.5635776,8.44462025 Z M25.950431,5.625 C26.4610564,5.625 26.875,6.04579566 26.875,6.56487342 C26.875,7.08395117 26.4610564,7.50474683 25.950431,7.50474683 L9.92456897,7.50474683 C9.41394363,7.50474683 9,7.08395117 9,6.56487342 C9,6.04579566 9.41394363,5.625 9.92456897,5.625 L25.950431,5.625 Z M15.7801724,24.7357595 L20.4030172,24.7357595 C20.9136426,24.7357595 21.3275862,25.1565552 21.3275862,25.6756329 C21.3275862,26.1947107 20.9136426,26.6155063 20.4030172,26.6155063 L15.7801724,26.6155063 C15.2695471,26.6155063 14.8556035,26.1947107 14.8556035,25.6756329 C14.8556035,25.1565552 15.2695471,24.7357595 15.7801724,24.7357595 Z" id="形状" stroke="#E5E5E5" stroke-width="0.225" fill-rule="nonzero"></path>
                    </g>
                </g>
            </g>
        </g>
    </g>
</svg>