<?xml version="1.0" encoding="UTF-8"?>
<svg width="32px" height="32px" viewBox="0 0 32 32" version="1.1" xmlns="http://www.w3.org/2000/svg" xmlns:xlink="http://www.w3.org/1999/xlink">
    <title>编组 7</title>
    <g id="页面-1" stroke="none" stroke-width="1" fill="none" fill-rule="evenodd">
        <g id="Input-page-完整页面" transform="translate(-342, -1444)">
            <g id="编组-7" transform="translate(342, 1444)">
                <circle id="Path" fill-opacity="0.6" fill="#171717" cx="16" cy="16" r="16"></circle>
                <path d="M10.3014719,10.3550467 C10.7701011,9.88641752 11.529899,9.88641752 11.9985282,10.3550467 L21.591156,19.9476744 C22.0597851,20.4163036 22.0597851,21.1761016 21.591156,21.6447307 C21.1225268,22.1133599 20.3627288,22.1133599 19.8940997,21.6447307 L15.9459258,17.6965748 L11.998454,21.6449533 C11.5610668,22.0823405 10.8700392,22.1114997 10.3988332,21.7324308 L10.3013977,21.6449533 C9.83276856,21.1763242 9.83276856,20.4165262 10.3013977,19.9478971 L14.2489258,15.9995748 L10.3014719,12.0521029 C9.8640847,11.6147157 9.83492556,10.9236881 10.2139945,10.4524822 Z M19.8940626,10.3552322 C20.3626917,9.88660303 21.1224897,9.88660303 21.5911189,10.3552322 C22.059748,10.8238613 22.059748,11.5836593 21.5911189,12.0522885 L19.3283772,14.3150302 C18.859748,14.7836593 18.09995,14.7836593 17.6313209,14.3150302 C17.1626917,13.846401 17.1626917,13.086603 17.6313209,12.6179739 Z" id="形状结合" fill="#FFFFFF" fill-rule="nonzero"></path>
            </g>
        </g>
    </g>
</svg>