<?xml version="1.0" encoding="UTF-8"?>
<svg width="44px" height="44px" viewBox="0 0 44 44" version="1.1" xmlns="http://www.w3.org/2000/svg" xmlns:xlink="http://www.w3.org/1999/xlink">
    <title>fault</title>
    <g id="页面-1" stroke="none" stroke-width="1" fill="none" fill-rule="evenodd">
        <g id="Input-page-帮助引导" transform="translate(-666, -958)" fill-rule="nonzero">
            <g id="fault" transform="translate(666, 958)">
                <g id="编组备份-5" fill="#ED0C00">
                    <path d="M22,0 C9.97333333,0 0,9.97333333 0,22 C0,34.0266667 9.97333333,44 22,44 C34.0266667,44 44,34.0266667 44,22 C44,9.97333333 34.0266667,0 22,0 Z" id="形状"></path>
                </g>
                <path d="M31.3866667,28.16 C32.2666667,29.04 32.2666667,30.2133333 31.3866667,31.0933333 C30.5066667,31.9733333 29.3333333,31.9733333 28.4533333,31.0933333 L22.2933333,24.9333333 L15.84,31.3866667 C14.96,32.2666667 13.4933333,32.2666667 12.6133333,31.3866667 C11.7333333,30.5066667 11.7333333,29.04 12.6133333,28.16 L19.0666667,21.7066667 L12.9066667,15.5466667 C12.0266667,14.6666667 12.0266667,13.4933333 12.9066667,12.6133333 C13.7866667,11.7333333 14.96,11.7333333 15.84,12.6133333 L22,18.7733333 L28.4533333,12.32 C29.3333333,11.44 30.8,11.44 31.68,12.32 C32.56,13.2 32.56,14.6666667 31.68,15.5466667 L25.2266667,22 L31.3866667,28.16 Z" id="路径" fill="#FFFFFF"></path>
            </g>
        </g>
    </g>
</svg>