<?xml version="1.0" encoding="UTF-8"?>
<svg width="24px" height="24px" viewBox="0 0 24 24" version="1.1" xmlns="http://www.w3.org/2000/svg" xmlns:xlink="http://www.w3.org/1999/xlink">
    <title>编组</title>
    <g id="页面-1" stroke="none" stroke-width="1" fill="none" fill-rule="evenodd">
        <g id="Input-page-首屏-选择+上传" transform="translate(-532, -586)" fill="#FFFFFF" fill-rule="nonzero">
            <g id="编组-4" transform="translate(16, 554)">
                <g id="编组-2" transform="translate(506, 22)">
                    <g id="编组" transform="translate(10, 10)">
                        <path d="M0.000636095292,12.1232833 C-0.0437131676,7.80679451 2.2337653,3.79910485 5.96481513,1.62808914 C9.69586497,-0.542926572 14.3054728,-0.542680737 18.0362911,1.62873292 C21.7671093,3.80014659 24.0441603,7.80807914 23.9993506,12.1245631 C23.9310566,18.7032787 18.5784301,24.0003453 11.99936,24 C5.42028994,23.9996435 0.0682284197,18.7020061 0.000636095292,12.1232833 L0.000636095292,12.1232833 Z M11.9993534,2.04436072 C8.37120518,2.00370763 5.00114972,3.91608377 3.17537133,7.05162928 C1.34959295,10.1871748 1.34983895,14.062024 3.17601547,17.1973376 C5.00219198,20.3326513 8.37249025,22.2445995 12.0006333,22.2034857 C17.5231155,22.1409055 21.9669658,17.6461272 21.9666151,12.1232904 C21.9662645,6.60045374 17.5218435,2.10623974 11.9993534,2.04436072 L11.9993534,2.04436072 Z" id="形状"></path>
                        <path d="M9.36027554,10.4441028 C9.36027554,9.91396608 9.79003623,9.48420538 10.3201729,9.48420538 L12.2399677,9.48420538 C12.7701044,9.48420538 13.1998651,9.91396608 13.1998651,10.4441028 L13.1998651,17.4027189 C13.1998651,17.9328556 12.7701044,18.3626163 12.2399677,18.3626163 C11.709831,18.3626163 11.2800703,17.9328556 11.2800703,17.4027189 L11.2800703,11.4027203 L10.3201729,11.4027203 C9.79003623,11.4027203 9.36027554,10.9729596 9.36027554,10.4428229 L9.36027554,10.4441028 Z" id="路径"></path>
                        <path d="M8.63971257,17.6433332 C8.63971257,17.1131965 9.06947327,16.6834358 9.59960996,16.6834358 L14.8790456,16.6834358 C15.4091823,16.6834358 15.838943,17.1131965 15.838943,17.6433332 C15.838943,18.1734699 15.4091823,18.6032306 14.8790456,18.6032306 L9.59960996,18.6032306 C9.06947327,18.6032306 8.63971257,18.1734699 8.63971257,17.6433332 Z" id="路径"></path>
                        <path d="M11.9993534,5.04436003 C11.4315401,5.02809165 10.8997561,5.32172383 10.611049,5.81093224 C10.3223419,6.30014065 10.3223419,6.90760595 10.611049,7.39681437 C10.8997561,7.88602278 11.4315401,8.17965496 11.9993534,8.16338658 C12.8432557,8.139208 13.5148252,7.44812186 13.5148252,6.6038733 C13.5148252,5.75962475 12.8432557,5.0685386 11.9993534,5.04436003 L11.9993534,5.04436003 Z" id="路径"></path>
                    </g>
                </g>
            </g>
        </g>
    </g>
</svg>