<?xml version="1.0" encoding="UTF-8"?>
<svg width="44px" height="46px" viewBox="0 0 44 46" version="1.1" xmlns="http://www.w3.org/2000/svg" xmlns:xlink="http://www.w3.org/1999/xlink">
    <title>编组</title>
    <g id="页面-1" stroke="none" stroke-width="1" fill="none" fill-rule="evenodd">
        <g id="Input-page--loading" transform="translate(-267, -532)" fill="#FFFFFF" fill-rule="nonzero">
            <g id="编组-14" transform="translate(16, -420)">
                <g id="编组-13" transform="translate(0, 812)">
                    <g id="编组-7" transform="translate(198, 88)">
                        <g id="编组" transform="translate(53, 52)">
                            <path d="M26.8929433,6.05271805 C26.8929433,9.39452818 24.1595296,12.1054361 20.7792521,12.1054361 C17.4022919,12.1054361 14.6688782,9.39452818 14.6688782,6.05271805 C14.6688782,2.71090792 17.4056092,0 20.7759349,0 C24.1528951,0.003285949 26.8929433,2.71090792 26.8929433,6.05271805 L26.8929433,6.05271805 Z M33.7397467,16.8240589 C35.1495778,16.8240589 36.5594089,16.2917351 37.6308806,15.2303736 C39.7771411,13.1043646 39.7771411,9.65411815 37.6308806,7.52810915 C36.5594089,6.46346168 35.1462606,5.93442389 33.7397467,5.93442389 C32.3332328,5.93442389 30.9267189,6.46674762 29.8552473,7.52810915 C27.7089867,9.65411815 27.7089867,13.1043646 29.8552473,15.2303736 C30.9300362,16.2917351 32.3365501,16.8240589 33.7397467,16.8240589 L33.7397467,16.8240589 Z M39.1103739,19.3706693 C36.4134499,19.3739553 34.2174306,21.5426816 34.2174306,24.2141582 C34.2174306,26.8856347 36.4068154,29.0609329 39.1103739,29.0609329 C41.8139324,29.0609329 44,26.8922066 44,24.2141582 C43.9966828,21.5393957 41.8139324,19.3706693 39.1103739,19.3706693 L39.1103739,19.3706693 Z M33.7463812,32.8134867 C32.6483715,32.8134867 31.5536791,33.2308022 30.7210495,34.0588613 C29.0491556,35.7149796 29.0491556,38.396314 30.7210495,40.0458604 C31.5536791,40.8739196 32.6483715,41.2846632 33.7463812,41.2846632 C34.8344391,41.2846632 35.935766,40.8739196 36.7717129,40.0392885 C38.4402895,38.3897421 38.4402895,35.7084077 36.7717129,34.0522894 C35.935766,33.2308022 34.8344391,32.8134867 33.7463812,32.8134867 L33.7463812,32.8134867 Z M20.7825694,38.7380527 C18.759047,38.7380527 17.1203257,40.3744553 17.1203257,42.3690264 C17.1203257,44.3833131 18.759047,46 20.7858866,46 C22.8094089,46 24.4481303,44.3767412 24.4481303,42.3723123 C24.4481303,40.3678834 22.8060917,38.7380527 20.7825694,38.7380527 L20.7825694,38.7380527 Z M7.81544029,34.0325738 C7.03256936,34.0325738 6.24969843,34.3348811 5.65259349,34.9230659 C4.45838359,36.1027216 4.45838359,38.0151439 5.65259349,39.2046575 C6.24969843,39.7961283 7.03256936,40.0918637 7.81212304,40.0918637 C8.59167672,40.0918637 9.3778649,39.7961283 9.97496984,39.2046575 C11.1658625,38.0184299 11.1691797,36.0994357 9.97496984,34.9230659 C9.3844994,34.3283092 8.59831122,34.0325738 7.81544029,34.0325738 L7.81544029,34.0325738 Z M2.44481303,21.7956997 C1.0946924,21.7956997 0,22.8767769 0,24.2174441 C0,25.5482534 1.09137515,26.6326166 2.44481303,26.6326166 C3.79493366,26.6326166 4.89294331,25.5548253 4.88963355,24.2174441 C4.89294331,22.8767769 3.79493366,21.7956997 2.44481303,21.7956997 L2.44481303,21.7956997 Z M7.81212304,13.1897993 L7.81212304,13.1897993 C7.92822678,13.1897993 8.04101327,13.143796 8.15711701,13.1240803 C8.50211098,13.0550754 8.84047045,12.9236374 9.10916767,12.6574755 C9.82569361,11.9509965 9.82569361,10.8009144 9.10916767,10.0878634 C8.7509047,9.73626688 8.27985525,9.55553968 7.81212304,9.55553968 C7.34107358,9.55553968 6.87334138,9.73626688 6.51507841,10.0878634 C5.79855247,10.7976284 5.79855247,11.9477106 6.51507841,12.6541896 C6.87002413,13.012358 7.34439083,13.1897993 7.81212304,13.1897993 L7.81212304,13.1897993 Z" id="形状"></path>
                        </g>
                    </g>
                </g>
            </g>
        </g>
    </g>
</svg>