<?xml version="1.0" encoding="UTF-8"?>
<svg width="28px" height="28px" viewBox="0 0 28 28" version="1.1" xmlns="http://www.w3.org/2000/svg" xmlns:xlink="http://www.w3.org/1999/xlink">
    <title>编组 4</title>
    <g id="页面-1" stroke="none" stroke-width="1" fill="none" fill-rule="evenodd">
        <g id="Input-page-完整页面" transform="translate(-298, -1870)" fill="#171717" fill-rule="nonzero">
            <g id="编组-4" transform="translate(298, 1870)">
                <g id="编组" transform="translate(0, 7.2)">
                    <path d="M10.9460177,0.683279986 C10.6311933,-0.228687207 10.1190349,-0.227656036 9.80814067,0.685754795 L8.05240535,5.84222601 C7.74151112,6.75563684 6.73767235,7.75710963 5.8215376,8.06769819 L0.688163007,9.808314 C-0.227764893,10.1189026 -0.229626535,10.6324255 0.684026025,10.9496135 L5.7865801,12.720752 C6.70023266,13.03794 7.70531253,14.0435375 8.02013689,14.9557109 L9.80090095,20.1169255 C10.1155185,21.0290989 10.6262289,21.0274491 10.9354684,20.1134195 L12.6740352,14.9746845 C12.9830678,14.0606549 13.9850449,13.0571198 14.9003523,12.7446751 L20.1141912,10.9642561 C21.0294985,10.6518115 21.0284643,10.1432382 20.1119158,9.8342995 L14.9806097,8.10378916 C14.0640613,7.79464424 13.0564992,6.79564626 12.7416749,5.88367907 L10.9460177,0.683279986 Z" id="路径"></path>
                </g>
                <g id="编组备份-3" transform="translate(16.8, 0)">
                    <path d="M5.89400952,0.367919992 C5.72448871,-0.123139265 5.4487111,-0.12258402 5.28130652,0.369252582 L4.33591057,3.14581401 C4.16850599,3.63765061 3.62797742,4.17690519 3.13467409,4.34414518 L0.370549312,5.28139985 C-0.122642634,5.44863984 -0.123645057,5.72515217 0.368321706,5.89594574 L3.11585082,6.84963567 C3.60781758,7.02042924 4.14901444,7.5619048 4.31853525,8.05307511 L5.27740821,10.8321907 C5.44681763,11.323361 5.72181558,11.3224726 5.88832912,10.8303028 L6.8244805,8.06329163 C6.99088266,7.57112188 7.53040881,7.03075681 8.02326662,6.86251737 L10.8307183,5.90383023 C11.3235761,5.73559079 11.3230192,5.46174363 10.8294931,5.29539204 L8.06648217,4.36357878 C7.57295608,4.19711613 7.03042267,3.65919414 6.86090186,3.16813488 L5.89400952,0.367919992 Z" id="路径"></path>
                </g>
            </g>
        </g>
    </g>
</svg>