<?xml version="1.0" encoding="UTF-8"?>
<svg width="36px" height="35px" viewBox="0 0 36 35" version="1.1" xmlns="http://www.w3.org/2000/svg" xmlns:xlink="http://www.w3.org/1999/xlink">
    <title>编组</title>
    <g id="页面-1" stroke="none" stroke-width="1" fill="none" fill-rule="evenodd">
        <g id="Input-page-完整页面" transform="translate(-650, -1203)" fill="#FFFFFF" fill-rule="nonzero">
            <g id="编组" transform="translate(650, 1203)">
                <path d="M20.07,13.8560411 C18.45,13.8560411 17.19,15.1156812 17.19,16.7352185 C17.19,18.3547558 18.45,19.6143959 20.07,19.6143959 C21.69,19.6143959 22.95,18.3547558 22.95,16.7352185 C22.95,15.1156812 21.6,13.8560411 20.07,13.8560411 L20.07,13.8560411 Z M20.07,17.2750643 C19.71,17.2750643 19.53,17.0051414 19.53,16.7352185 C19.53,16.4652956 19.8,16.1953728 20.07,16.1953728 C20.43,16.1953728 20.61,16.4652956 20.61,16.7352185 C20.61,17.0051414 20.34,17.2750643 20.07,17.2750643 Z" id="形状"></path>
                <path d="M32.4,8.99742932 L13.41,8.99742932 C11.43,8.99742932 9.81000001,10.6169666 9.81000001,12.5064267 L9.81000001,31.4910026 C9.81000001,33.470437 11.43,35 13.41,35 L32.4,35 C34.38,35 36,33.3804627 36,31.4910026 L36,12.5064267 C36,10.5269923 34.38,8.99742932 32.4,8.99742932 Z M33.66,31.4910026 C33.66,32.1208226 33.12,32.6606684 32.49,32.6606684 L13.41,32.6606684 C12.78,32.6606684 12.24,32.1208226 12.24,31.4910026 L12.24,29.6015424 L17.64,24.2030848 C18.09,23.8431877 18.72,23.7532134 19.17,24.0231363 L23.04,26.6323908 C24.48,27.5321337 26.37,27.3521851 27.54,26.1825193 L33.66,20.0642674 L33.66,31.4910026 L33.66,31.4910026 Z M33.66,16.8251928 L25.92,24.562982 C25.47,24.9228792 24.84,25.0128535 24.39,24.7429306 L20.52,22.1336761 C19.08,21.2339332 17.19,21.4138817 16.02,22.5835475 L12.33,26.2724936 L12.33,12.5064267 C12.33,11.8766067 12.87,11.3367609 13.5,11.3367609 L32.4,11.3367609 C33.03,11.3367609 33.57,11.8766067 33.57,12.5064267 L33.66,16.8251928 Z" id="形状"></path>
                <path d="M32.4,8.99742932 L13.41,8.99742932 C11.43,8.99742932 9.81000001,10.6169666 9.81000001,12.5064267 L9.81000001,31.4910026 C9.81000001,33.470437 11.43,35 13.41,35 L32.4,35 C34.38,35 36,33.3804627 36,31.4910026 L36,12.5064267 C36,10.5269923 34.38,8.99742932 32.4,8.99742932 Z M33.66,31.4910026 C33.66,32.1208226 33.12,32.6606684 32.49,32.6606684 L13.41,32.6606684 C12.78,32.6606684 12.24,32.1208226 12.24,31.4910026 L12.24,29.6015424 L17.64,24.2030848 C18.09,23.8431877 18.72,23.7532134 19.17,24.0231363 L23.04,26.6323908 C24.48,27.5321337 26.37,27.3521851 27.54,26.1825193 L33.66,20.0642674 L33.66,31.4910026 L33.66,31.4910026 Z M33.66,16.8251928 L25.92,24.562982 C25.47,24.9228792 24.84,25.0128535 24.39,24.7429306 L20.52,22.1336761 C19.08,21.2339332 17.19,21.4138817 16.02,22.5835475 L12.33,26.2724936 L12.33,12.5064267 C12.33,11.8766067 12.87,11.3367609 13.5,11.3367609 L32.4,11.3367609 C33.03,11.3367609 33.57,11.8766067 33.57,12.5064267 L33.66,16.8251928 Z" id="形状"></path>
                <path d="M32.4,8.99742932 L13.41,8.99742932 C11.43,8.99742932 9.81000001,10.6169666 9.81000001,12.5064267 L9.81000001,31.4910026 C9.81000001,33.470437 11.43,35 13.41,35 L32.4,35 C34.38,35 36,33.3804627 36,31.4910026 L36,12.5064267 C36,10.5269923 34.38,8.99742932 32.4,8.99742932 Z M33.66,31.4910026 C33.66,32.1208226 33.12,32.6606684 32.49,32.6606684 L13.41,32.6606684 C12.78,32.6606684 12.24,32.1208226 12.24,31.4910026 L12.24,29.6015424 L17.64,24.2030848 C18.09,23.8431877 18.72,23.7532134 19.17,24.0231363 L23.04,26.6323908 C24.48,27.5321337 26.37,27.3521851 27.54,26.1825193 L33.66,20.0642674 L33.66,31.4910026 L33.66,31.4910026 Z M33.66,16.8251928 L25.92,24.562982 C25.47,24.9228792 24.84,25.0128535 24.39,24.7429306 L20.52,22.1336761 C19.08,21.2339332 17.19,21.4138817 16.02,22.5835475 L12.33,26.2724936 L12.33,12.5064267 C12.33,11.8766067 12.87,11.3367609 13.5,11.3367609 L32.4,11.3367609 C33.03,11.3367609 33.57,11.8766067 33.57,12.5064267 L33.66,16.8251928 Z" id="形状"></path>
                <path d="M3.6,23.6632391 C2.97000001,23.6632391 2.43000001,23.1233933 2.43000001,22.4935733 L2.43000001,3.59897172 C2.43000001,2.96915168 2.97000001,2.42930592 3.6,2.42930592 L22.68,2.42930592 C23.31,2.42930592 23.85,2.96915168 23.85,3.59897172 L23.85,5.12820053 C23.85,5.77437368 24.3738269,6.29820052 25.02,6.29820052 C25.6661732,6.29820052 26.19,5.77437368 26.19,5.12820053 L26.19,3.59897172 L26.19,3.59897172 C26.19,1.61953726 24.57,0 22.59,0 L3.6,0 C1.61999998,0 0,1.61953726 0,3.59897172 L0,22.4935733 C0,24.4730077 1.61999998,26.092545 3.6,26.092545 L5.98534706,26.092545 C6.65618135,26.092545 7.2,25.5487263 7.2,24.877892 C7.2,24.2070577 6.65618135,23.6632391 5.98534706,23.6632391 L3.6,23.6632391 L3.6,23.6632391 Z" id="路径"></path>
            </g>
        </g>
    </g>
</svg>