<?xml version="1.0" encoding="UTF-8"?>
<svg width="44px" height="44px" viewBox="0 0 44 44" version="1.1" xmlns="http://www.w3.org/2000/svg" xmlns:xlink="http://www.w3.org/1999/xlink">
    <title>right</title>
    <g id="页面-1" stroke="none" stroke-width="1" fill="none" fill-rule="evenodd">
        <g id="Input-page-帮助引导" transform="translate(-303, -958)" fill-rule="nonzero">
            <g id="right" transform="translate(303, 958)">
                <g id="编组备份-4" transform="translate(0, 0)" fill="#299E46">
                    <path d="M21.9904062,2.19952154e-06 C9.84209745,0.00492279125 -0.00147551845,9.8554919 0,22.0029532 C0.00147551845,34.1504146 9.84898312,43.9985245 21.9968001,44.0000022 C34.1446171,44.0014755 43.994092,34.1573004 44,22.0093471 C44.0024744,16.1712612 41.6843946,10.5715829 37.5562443,6.44347854 C33.4280939,2.31537416 27.8284266,-0.00260649823 21.9904062,2.19952154e-06 L21.9904062,2.19952154e-06 Z" id="形状"></path>
                </g>
                <path d="M34.6162862,16.2976106 L20.378665,30.5250628 C20.003482,30.912113 19.4874531,31.130581 18.9484107,31.130581 C18.4093682,31.130581 17.8933394,30.912113 17.5181564,30.5250628 L9.32616321,22.3339615 C8.53611973,21.5439092 8.53611972,20.2629812 9.32616319,19.4729289 C10.1162067,18.6828766 11.3971202,18.6828765 12.1871637,19.4729289 L18.9769371,26.2627784 L31.7936488,13.4936315 C32.3034351,12.9763017 33.0514283,12.7719708 33.7534237,12.9582758 C34.455419,13.1445807 35.003662,13.692924 35.1898441,14.3949593 C35.3760263,15.0969945 35.1715691,15.844961 34.6541575,16.3546641 L34.6162862,16.2976106 Z" id="路径" fill="#FFFFFF"></path>
            </g>
        </g>
    </g>
</svg>