<?xml version="1.0" encoding="UTF-8"?>
<svg width="36px" height="36px" viewBox="0 0 36 36" version="1.1" xmlns="http://www.w3.org/2000/svg" xmlns:xlink="http://www.w3.org/1999/xlink">
    <title>编组 12</title>
    <g id="页面-1" stroke="none" stroke-width="1" fill="none" fill-rule="evenodd">
        <g id="Input-page-首屏-选择+上传" transform="translate(-260, -895)" fill="#EE3939">
            <g id="编组-15" transform="translate(218, 881)">
                <g id="编组-14" transform="translate(26, 0)">
                    <g id="编组-13" transform="translate(16, 9)">
                        <g id="编组-12" transform="translate(0, 5)">
                            <rect id="矩形" opacity="0" x="0" y="0" width="36" height="36" rx="6"></rect>
                            <g id="编组" transform="translate(5, 5)" fill-rule="nonzero">
                                <path d="M7.05714284,2.22857143 C4.3903965,2.22857143 2.22857143,4.3903965 2.22857143,7.05714284 L2.22857143,18.9428572 C2.22857143,21.6096035 4.3903965,23.7714286 7.05714284,23.7714286 L18.9428572,23.7714286 C21.6096035,23.7714286 23.7714286,21.6096035 23.7714286,18.9428572 L23.7714286,7.05714284 C23.7714286,4.3903965 21.6096035,2.22857143 18.9428572,2.22857143 L7.05714284,2.22857143 Z M0,7.05714284 C0,3.15959048 3.15959048,0 7.05714284,0 L18.9428572,0 C22.8404095,0 26,3.15959048 26,7.05714284 L26,18.9428572 C26,22.8404095 22.8404095,26 18.9428572,26 L7.05714284,26 C3.15959048,26 0,22.8404095 0,18.9428572 L0,7.05714284 L0,7.05714284 Z" id="形状"></path>
                                <path d="M13,9.65714285 C11.153791,9.65714285 9.65714285,11.153791 9.65714285,13 C9.65714285,14.846209 11.153791,16.3428571 13,16.3428571 C14.846209,16.3428571 16.3428571,14.846209 16.3428571,13 C16.3428571,11.153791 14.846209,9.65714285 13,9.65714285 Z M7.42857142,13 C7.42857142,9.92298496 9.92298496,7.42857142 13,7.42857142 C16.077015,7.42857142 18.5714286,9.92298496 18.5714286,13 C18.5714286,16.077015 16.077015,18.5714286 13,18.5714286 C9.92298496,18.5714286 7.42857142,16.077015 7.42857142,13 L7.42857142,13 Z M19.6857143,4.82857141 C20.5062516,4.82857141 21.1714286,5.49374836 21.1714286,6.31428571 L21.1714286,6.31577143 C21.1714286,7.13630878 20.5062516,7.80148573 19.6857143,7.80148573 C18.8651769,7.80148573 18.2,7.13630878 18.2,6.31577143 L18.2,6.31428571 C18.2,5.92024978 18.3565302,5.54235253 18.6351556,5.26372705 C18.9137811,4.98510157 19.2916784,4.82857141 19.6857143,4.82857141 L19.6857143,4.82857141 Z" id="形状"></path>
                            </g>
                        </g>
                    </g>
                </g>
            </g>
        </g>
    </g>
</svg>