<svg width="118" height="18" viewBox="0 0 118 18" fill="none" xmlns="http://www.w3.org/2000/svg">
<path d="M12.3047 14.7539H6.25781L5.42578 17.5898H0L6.45703 0.410156H12.2461L18.7031 17.5898H13.1484L12.3047 14.7539ZM11.1914 11.0391L9.29297 4.86328L7.40625 11.0391H11.1914Z" fill="#010101"/>
<path d="M22.545 0.410156H27.8653V17.5898H22.545V0.410156Z" fill="#010101"/>
<path d="M33.547 0.410156H40.5314L43.2267 10.8633L45.9103 0.410156H52.8713V17.5898H48.5353V4.48828L45.172 17.5898H41.2463L37.8947 4.48828V17.5898H33.547V0.410156Z" fill="#010101"/>
<path d="M57.5217 9.01172C57.5217 6.20703 58.303 4.02344 59.8655 2.46094C61.428 0.898438 63.6037 0.117188 66.3928 0.117188C69.2522 0.117188 71.4553 0.886719 73.0022 2.42578C74.5491 3.95703 75.3225 6.10547 75.3225 8.87109C75.3225 10.8789 74.9827 12.5273 74.303 13.8164C73.6311 15.0977 72.6545 16.0977 71.3733 16.8164C70.0998 17.5273 68.51 17.8828 66.6037 17.8828C64.6662 17.8828 63.0608 17.5742 61.7873 16.957C60.5217 16.3398 59.4944 15.3633 58.7053 14.0273C57.9162 12.6914 57.5217 11.0195 57.5217 9.01172ZM62.8303 9.03516C62.8303 10.7695 63.1506 12.0156 63.7912 12.7734C64.4397 13.5312 65.3186 13.9102 66.428 13.9102C67.5686 13.9102 68.4514 13.5391 69.0764 12.7969C69.7014 12.0547 70.0139 10.7227 70.0139 8.80078C70.0139 7.18359 69.6858 6.00391 69.0295 5.26172C68.3811 4.51172 67.4983 4.13672 66.3811 4.13672C65.3108 4.13672 64.4514 4.51562 63.803 5.27344C63.1545 6.03125 62.8303 7.28516 62.8303 9.03516Z" fill="#010101"/>
<path d="M80.1722 0.410156H88.0589C89.6136 0.410156 90.8675 0.621094 91.8206 1.04297C92.7816 1.46484 93.5745 2.07031 94.1995 2.85938C94.8245 3.64844 95.2777 4.56641 95.5589 5.61328C95.8402 6.66016 95.9808 7.76953 95.9808 8.94141C95.9808 10.7773 95.7698 12.2031 95.348 13.2188C94.9339 14.2266 94.3558 15.0742 93.6136 15.7617C92.8714 16.4414 92.0745 16.8945 91.223 17.1211C90.0589 17.4336 89.0042 17.5898 88.0589 17.5898H80.1722V0.410156ZM85.4808 4.30078V13.6875H86.7816C87.8909 13.6875 88.68 13.5664 89.1488 13.3242C89.6175 13.0742 89.9847 12.6445 90.2503 12.0352C90.5159 11.418 90.6488 10.4219 90.6488 9.04688C90.6488 7.22656 90.3519 5.98047 89.7581 5.30859C89.1644 4.63672 88.18 4.30078 86.805 4.30078H85.4808Z" fill="#010101"/>
<path d="M111.272 14.7539H105.225L104.393 17.5898H98.9672L105.424 0.410156H111.213L117.67 17.5898H112.116L111.272 14.7539ZM110.159 11.0391L108.26 4.86328L106.373 11.0391H110.159Z" fill="#010101"/>
</svg>
