<?xml version="1.0" encoding="UTF-8"?>
<svg width="56px" height="56px" viewBox="0 0 56 56" version="1.1" xmlns="http://www.w3.org/2000/svg" xmlns:xlink="http://www.w3.org/1999/xlink">
    <title>icon/toast/加载</title>
    <g id="页面-1" stroke="none" stroke-width="1" fill="none" fill-rule="evenodd">
        <g id="单张重新生成失败" transform="translate(-349, -594)" fill="#FFFFFF">
            <g id="反馈/toast/图标-2备份-2" transform="translate(124, 570)">
                <g id="icon/toast/加载" transform="translate(227.3333, 26.5455)">
                    <path d="M25.4545455,-3.55271368e-15 C39.5127027,-3.55271368e-15 50.9090909,11.3963882 50.9090909,25.4545455 C50.9090909,39.5127027 39.5127027,50.9090909 25.4545455,50.9090909 C11.3963882,50.9090909 0,39.5127027 0,25.4545455 C0,11.3963882 11.3963882,-3.55271368e-15 25.4545455,-3.55271368e-15 Z M25.4545455,3.81818182 C13.5051118,3.81818182 3.81818182,13.5051118 3.81818182,25.4545455 C3.81818182,37.4039791 13.5051118,47.0909091 25.4545455,47.0909091 C37.4039791,47.0909091 47.0909091,37.4039791 47.0909091,25.4545455 C47.0909091,13.5051118 37.4039791,3.81818182 25.4545455,3.81818182 Z M25.4545455,33.0909091 C26.8603612,33.0909091 28,34.2305479 28,35.6363636 C28,37.0421794 26.8603612,38.1818182 25.4545455,38.1818182 C24.0487297,38.1818182 22.9090909,37.0421794 22.9090909,35.6363636 C22.9090909,34.2305479 24.0487297,33.0909091 25.4545455,33.0909091 Z M25.4545455,12.7272727 C26.8603612,12.7272727 28,13.8669115 28,15.2727273 L28,28 C28,29.4058157 26.8603612,30.5454545 25.4545455,30.5454545 C24.0487297,30.5454545 22.9090909,29.4058157 22.9090909,28 L22.9090909,15.2727273 C22.9090909,13.8669115 24.0487297,12.7272727 25.4545455,12.7272727 Z" id="形状结合"></path>
                </g>
            </g>
        </g>
    </g>
</svg>