<svg width="32" height="32" viewBox="0 0 32 32" fill="none" xmlns="http://www.w3.org/2000/svg">
<path fill-rule="evenodd" clip-rule="evenodd" d="M27.5047 9.01513C27.785 8.95369 27.9706 8.81345 27.9973 8.5076L28 8.50627C27.9866 8.2071 27.8144 8.05083 27.5314 7.98806C27.215 7.91781 26.8994 7.84582 26.5839 7.77387C26.2816 7.70492 25.9794 7.636 25.6769 7.56869C25 7.4191 24.5835 7.00908 24.4299 6.33327C24.2911 5.72691 24.1536 5.11922 24.02 4.51153C23.956 4.22438 23.8278 4 23.5007 4C23.1763 4 23.0401 4.21369 22.9773 4.50485C22.8438 5.12456 22.705 5.74294 22.5594 6.35998C22.4072 7.00641 22.004 7.41109 21.3578 7.56201C20.7517 7.70358 20.1442 7.83848 19.5354 7.9707C19.239 8.03481 18.996 8.15768 19 8.5036C19.0027 8.84818 19.2484 8.96438 19.5448 9.02848C19.988 9.12371 20.4312 9.22482 20.8739 9.32581C21.0273 9.36081 21.1806 9.39578 21.3338 9.4305C21.9947 9.58142 22.4072 9.9861 22.5608 10.6472C22.6983 11.2429 22.8318 11.8399 22.9653 12.4369C23.0548 12.8309 23.223 13.0139 23.5087 12.9992C23.8545 12.9805 23.964 12.7374 24.0267 12.4436C24.1562 11.8466 24.2911 11.2496 24.4286 10.6539C24.5808 9.99411 24.9893 9.58409 25.6502 9.43317L25.7249 9.41607C26.318 9.2802 26.9101 9.14459 27.5047 9.01513ZM21.0644 19.473C21.594 19.357 21.9445 19.0921 21.995 18.5144L22 18.5118C21.9748 17.9467 21.6495 17.6516 21.1148 17.533C20.5173 17.4003 19.921 17.2643 19.3251 17.1284C18.7541 16.9982 18.1833 16.868 17.612 16.7409C16.3334 16.4583 15.5465 15.6838 15.2565 14.4073C14.9943 13.2619 14.7345 12.1141 14.4823 10.9662C14.3613 10.4238 14.1192 10 13.5013 10C12.8885 10 12.6313 10.4036 12.5127 10.9536C12.2605 12.1242 11.9983 13.2922 11.7234 14.4577C11.4359 15.6788 10.6743 16.4432 9.45371 16.7282C8.30878 16.9957 7.16133 17.2505 6.01136 17.5002C5.45151 17.6213 4.99253 17.8534 5.00009 18.5068C5.00514 19.1577 5.46916 19.3772 6.02901 19.4982C6.86621 19.6781 7.70341 19.8691 8.53957 20.0599C8.82929 20.126 9.11889 20.192 9.40832 20.2576C10.6566 20.5427 11.4359 21.3071 11.7259 22.5559C11.9857 23.681 12.2379 24.8087 12.49 25.9364C12.659 26.6806 12.9768 27.0262 13.5164 26.9985C14.1696 26.9631 14.3764 26.504 14.4949 25.949C14.7395 24.8213 14.9943 23.6936 15.254 22.5685C15.5415 21.3222 16.3132 20.5477 17.5615 20.2626L17.7022 20.2304C18.8227 19.9738 19.9412 19.7176 21.0644 19.473Z" fill="white"/>
</svg>
