<svg width="48" height="48" viewBox="0 0 48 48" fill="none" xmlns="http://www.w3.org/2000/svg">
<rect width="48" height="48" fill="white"/>
<path fill-rule="evenodd" clip-rule="evenodd" d="M7.7168 7.44254C8.31789 7.44254 8.80518 7.92982 8.80518 8.53092V13.9558H14.2301C14.8312 13.9558 15.3185 14.4431 15.3185 15.0442C15.3185 15.6453 14.8312 16.1326 14.2301 16.1326H7.7168C7.1157 16.1326 6.62842 15.6453 6.62842 15.0442V8.53092C6.62842 7.92982 7.1157 7.44254 7.7168 7.44254Z" fill="black"/>
<path fill-rule="evenodd" clip-rule="evenodd" d="M7.54359 14.4974C10.8274 8.8221 16.9667 5 24 5C34.4934 5 43 13.5066 43 24C43 34.4934 34.4934 43 24 43C13.5066 43 5 34.4934 5 24C5 23.3989 5.48728 22.9116 6.08838 22.9116C6.68948 22.9116 7.17676 23.3989 7.17676 24C7.17676 33.2912 14.7088 40.8232 24 40.8232C33.2912 40.8232 40.8232 33.2912 40.8232 24C40.8232 14.7088 33.2912 7.17676 24 7.17676C17.7751 7.17676 12.3384 10.5571 9.4277 15.5876C9.12666 16.1078 8.46085 16.2856 7.94057 15.9845C7.42029 15.6835 7.24255 15.0177 7.54359 14.4974Z" fill="black"/>
<path fill-rule="evenodd" clip-rule="evenodd" d="M24.0046 12.1646C24.6057 12.1647 25.0929 12.652 25.0929 13.2531L25.0918 23.5571L32.367 30.8322C32.792 31.2573 32.792 31.9464 32.367 32.3714C31.942 32.7965 31.2528 32.7965 30.8278 32.3714L23.2338 24.7774C23.0297 24.5733 22.915 24.2964 22.915 24.0077L22.9161 13.2529C22.9162 12.6518 23.4035 12.1646 24.0046 12.1646Z" fill="black"/>
</svg>
