<?xml version="1.0" encoding="UTF-8"?>
<svg width="44px" height="44px" viewBox="0 0 44 44" version="1.1" xmlns="http://www.w3.org/2000/svg" xmlns:xlink="http://www.w3.org/1999/xlink">
    <title>加购</title>
    <g id="页面-1" stroke="none" stroke-width="1" fill="none" fill-rule="evenodd">
        <g id="Homepage" transform="translate(-682, -110)" fill-rule="nonzero">
            <g id="加购" transform="translate(682, 110)">
                <polygon id="路径" fill-opacity="0" fill="#FFFFFF" points="0 0 44 0 44 44 0 44"></polygon>
                <path d="M22.9953866,5 C26.905548,5 30.0821569,8.37095698 30.0821569,12.5365629 L30.0821569,13.3882112 L33.0903273,13.3882112 C35.1467186,13.3882112 36.8470578,14.9649904 36.9906915,16.9800251 L37,17.2670112 L37,26.3274551 C37.0017877,27.0223053 36.4813696,27.595544 35.8153551,27.6387448 C35.1498964,27.6819095 34.5648789,27.181235 34.4826278,26.4931755 L34.4724797,26.3081394 L34.4730411,17.2559577 C34.4730411,16.586397 33.9888973,16.016772 33.3355,15.9003992 L33.1180346,15.8802213 L30.4044444,15.8790203 L30.0799625,15.8790203 L30.0801674,16.2076387 L30.082157,19.3983599 C30.0821569,20.0623635 29.5623987,20.598415 28.9242244,20.598415 C28.2860502,20.598415 27.766292,20.0623635 27.766292,19.3981525 L27.766292,15.8790203 L18.2224917,15.8790203 L18.2224917,19.3981525 C18.2224917,20.0623635 17.7027334,20.598415 17.0645592,20.598415 C16.426385,20.598415 15.9066267,20.0623635 15.9066267,19.3981525 L15.9066267,15.8790203 L11.9116431,15.8790203 C11.256652,15.8687714 10.6843531,16.3418638 10.5513583,17.0037456 L10.5301308,17.2277121 L10.5289293,36.1335367 C10.5289293,36.8025952 11.0125487,37.3725152 11.6642611,37.4890559 L11.8842223,37.5092978 L23.1147592,37.5104741 C23.7388504,37.5157822 24.258109,38.020205 24.301097,38.670744 C24.3441237,39.3218689 23.8952111,39.8953234 23.2741952,39.9884066 L23.092584,40 L11.9116431,39.9992312 C9.85306427,39.9992312 8.15290786,38.424291 8.00928927,36.4094692 L8,36.1224987 L8,17.2559577 C8,15.2254803 9.59015596,13.5424972 11.6318899,13.3976682 L11.9203303,13.3901452 L15.5825287,13.3882111 L15.9066267,13.38803 L15.9066267,12.5365629 C15.9066267,8.37064344 19.0835291,5 22.9953866,5 Z M31.3952367,28.0716846 C32.0325114,28.0716846 32.5531692,28.6086638 32.5531692,29.2719471 L32.5531692,32.7910793 L35.8319174,32.7910793 C36.4755856,32.7910793 36.9997976,33.3317242 36.9997976,34.0016014 L36.9997976,34.0693144 C36.9997976,34.7391916 36.4755856,35.2798365 35.8319174,35.2798365 L32.5509748,35.2798365 L32.5511797,35.6084549 L32.5531693,38.7991761 C32.5531692,39.4631797 32.033411,39.9992312 31.3952367,39.9992312 C30.7570625,39.9992312 30.2373042,39.4631797 30.2373042,38.7989687 L30.2373042,35.2798365 L26.954577,35.2798365 C26.3109088,35.2798365 25.7866968,34.7391916 25.7866968,34.0693144 L25.7866968,34.0016014 C25.7866968,33.3317242 26.3109088,32.7910793 26.954577,32.7910793 L30.2333252,32.7910793 L30.2333252,29.2719471 C30.2333252,28.6084133 30.7542224,28.0716846 31.3952367,28.0716846 Z M22.9953866,7.48875717 C20.3559794,7.48875717 18.2224917,9.75234234 18.2224917,12.5365629 L18.2224917,13.3882112 L27.7630561,13.3882112 L27.7643,13.0610648 L27.7662896,12.5378275 C27.7662896,9.75198237 25.6344615,7.48875717 22.9953866,7.48875717 Z" id="形状结合" fill="#000000"></path>
            </g>
        </g>
    </g>
</svg>