<?xml version="1.0" encoding="UTF-8"?>
<svg width="81px" height="83px" viewBox="0 0 81 83" version="1.1" xmlns="http://www.w3.org/2000/svg" xmlns:xlink="http://www.w3.org/1999/xlink">
    <title>编组 50</title>
    <g id="规范" stroke="none" stroke-width="1" fill="none" fill-rule="evenodd">
        <g id="Confirm" transform="translate(-361, -3120)">
            <g id="编组-54" transform="translate(106, 3086)">
                <g id="编组-50" transform="translate(255, 34)">
                    <g id="编组" transform="translate(3.5352, -0)"></g>
                    <g id="编组" transform="translate(11, 9)" fill="#2563EB" fill-rule="nonzero">
                        <path d="M8.95714284,34.4615387 C6.70971427,34.4615387 4.88571429,36.2994874 4.88571429,38.5641028 L4.88571429,45.1282053 C4.88571429,46.5939102 5.66172413,47.9482775 6.92142853,48.68113 C8.18113292,49.4139825 9.73315275,49.4139825 10.9928571,48.68113 C12.2525615,47.9482775 13.0285714,46.5939102 13.0285714,45.1282053 L13.0285714,38.5641028 C13.0285714,36.2994874 11.2045714,34.4615387 8.95714284,34.4615387 L8.95714284,34.4615387 Z M0,38.5641028 C0,33.5793789 4.01024945,29.5384619 8.95714284,29.5384619 C13.9040362,29.5384619 17.9142857,33.5793789 17.9142857,38.5641028 L17.9142857,45.1282053 C17.9142857,50.1129291 13.9040362,54.1538462 8.95714284,54.1538462 C4.01024945,54.1538462 0,50.1129291 0,45.1282053 L0,38.5641028 L0,38.5641028 Z M48.0428572,34.4615387 C45.7954286,34.4615387 43.9714286,36.2994874 43.9714286,38.5641028 L43.9714286,45.1282053 C43.9714286,46.5939103 44.7474384,47.9482776 46.0071428,48.6811301 C47.2668472,49.4139826 48.8188671,49.4139826 50.0785715,48.6811301 C51.3382759,47.9482776 52.1142857,46.5939103 52.1142857,45.1282053 L52.1142857,38.5641028 C52.1142857,36.2994874 50.2902857,34.4615387 48.0428572,34.4615387 L48.0428572,34.4615387 Z M39.0857143,38.5641028 C39.0857143,33.5793789 43.0959638,29.5384619 48.0428572,29.5384619 C52.9897506,29.5384619 57,33.5793789 57,38.5641028 L57,45.1282053 C57,50.1129291 52.9897506,54.1538462 48.0428572,54.1538462 C43.0959638,54.1538462 39.0857143,50.1129291 39.0857143,45.1282053 L39.0857143,38.5641028 L39.0857143,38.5641028 Z" id="形状"></path>
                        <path d="M28.5,4.92307748 C15.4581901,4.92307748 4.88571429,15.5764043 4.88571429,28.717949 L4.88571429,38.5641028 C4.88571429,39.9235729 3.79200989,41.0256412 2.44285715,41.0256412 C1.0937044,41.0256412 0,39.9235729 0,38.5641028 L0,28.717949 C0,18.4580141 5.43206905,8.97744317 14.2499998,3.84747564 C23.0679306,-1.28249188 33.9320694,-1.28249188 42.7500002,3.84747564 C51.5679309,8.97744317 57,18.4580141 57,28.717949 L57,38.5641028 C57,39.9235729 55.9062956,41.0256412 54.5571429,41.0256412 C53.2079901,41.0256412 52.1142857,39.9235729 52.1142857,38.5641028 L52.1142857,28.717949 C52.1142857,22.4071567 49.6263592,16.354838 45.1978216,11.892434 C40.7692839,7.43002996 34.762898,4.92307748 28.5,4.92307748 Z M48.0428572,49.2307694 C49.3920099,49.2307694 50.4857143,50.3328377 50.4857143,51.6923078 C50.4857143,55.7095385 47.3784,58.8570257 43.4112,60.8557949 C39.33,62.913641 33.9654857,64 26.0571429,64 C27.1508473,64 26.0571429,62.8979317 26.0571429,61.5384616 C26.0571429,60.1789914 27.1508473,59.0769231 26.0571429,59.0769231 C33.402,59.0769231 37.9782857,58.0923077 41.2256572,56.4512821 C44.5870286,54.7577436 45.6,52.9001026 45.6,51.6923078 C45.6,50.3328377 46.6937044,49.2307694 48.0428572,49.2307694 Z" id="形状"></path>
                    </g>
                </g>
            </g>
        </g>
    </g>
</svg>