<?xml version="1.0" encoding="UTF-8"?>
<svg width="36px" height="36px" viewBox="0 0 36 36" version="1.1" xmlns="http://www.w3.org/2000/svg" xmlns:xlink="http://www.w3.org/1999/xlink">
    <title>收藏</title>
    <g id="页面-1" stroke="none" stroke-width="1" fill="none" fill-rule="evenodd">
        <g id="批量操作" transform="translate(-413, -1363)" fill="#EE3939" fill-rule="nonzero">
            <g id="收藏" transform="translate(413, 1363)">
                <polygon id="路径" fill-opacity="0" points="0 0 36 0 36 36 0 36"></polygon>
                <path d="M19.2345,6.71178855 C21.9203682,4.74155594 25.4858607,4.44881086 28.4571251,5.95456412 C31.4283894,7.46031737 33.3006583,10.508767 33.3001189,13.8397886 C33.3001189,18.1297886 30.783,22.0807886 27.8025,25.0897886 C24.81,28.1122886 21.1575,30.3817886 18.5055,31.2637886 C18.2751909,31.3403171 18.0263091,31.3403171 17.796,31.2637886 C15.1425,30.3817886 11.49,28.1122886 8.4975,25.0897886 C5.517,22.0807886 3,18.1297886 3,13.8397886 C3.00039779,11.4958052 3.93192307,9.24798334 5.58965089,7.59081812 C7.24737872,5.93365291 9.49551665,5.0028907 11.8395,5.00178855 C13.830693,4.99918321 15.7639361,5.6717995 17.3235,6.90978855 C17.615399,7.17482197 17.8913909,7.45532632 18.1500539,7.751311 L18.041,7.632 Z M18.041,7.632 L17.9614797,7.69425263 L18.843,8.653 L18.8948584,8.62227747 C18.642,8.33628855 18.48,8.14128855 18.3495,7.98678855 C18.2842212,7.90725411 18.2177307,7.82875269 18.1500539,7.751311 L18.041,7.632 Z" id="形状结合"></path>
            </g>
        </g>
    </g>
</svg>