<?xml version="1.0" encoding="UTF-8"?>
<svg width="44px" height="44px" viewBox="0 0 44 44" version="1.1" xmlns="http://www.w3.org/2000/svg" xmlns:xlink="http://www.w3.org/1999/xlink">
    <title>编组</title>
    <g id="页面-1" stroke="none" stroke-width="1" fill="none" fill-rule="evenodd">
        <g id="收藏成功提醒" transform="translate(-116, -1326)" fill="#299E46" fill-rule="nonzero">
            <g id="编组-59" transform="translate(92, 1300)">
                <g id="编组" transform="translate(24, 26)">
                    <path d="M22,3.38461538 C11.719007,3.38461538 3.38461538,11.719007 3.38461538,22 C3.38461538,32.280993 11.719007,40.6153846 22,40.6153846 C32.280993,40.6153846 40.6153846,32.280993 40.6153846,22 C40.6153846,11.719007 32.280993,3.38461538 22,3.38461538 Z M0,22 C0,9.84923077 9.84923077,0 22,0 C34.1507692,0 44,9.84923077 44,22 C44,34.1507692 34.1507692,44 22,44 C9.84923077,44 0,34.1507692 0,22 Z" id="形状"></path>
                    <path d="M29.9651282,16.291282 C30.625023,16.9519986 30.625023,18.0223604 29.9651282,18.6830769 L20.9394872,27.708718 C20.2787707,28.3686128 19.2084088,28.3686128 18.5476923,27.708718 L14.0348718,23.1958974 C13.5821156,22.7740152 13.3957449,22.1386438 13.5488731,21.5390401 C13.7020013,20.9394365 14.1702057,20.471232 14.7698094,20.3181039 C15.369413,20.1649757 16.0047844,20.3513464 16.4266666,20.8041026 L19.7435897,24.1210257 L27.5733334,16.291282 C28.2340499,15.6313873 29.3044117,15.6313873 29.9651282,16.291282 Z" id="路径"></path>
                </g>
            </g>
        </g>
    </g>
</svg>