<?xml version="1.0" encoding="UTF-8"?>
<svg width="56px" height="56px" viewBox="0 0 56 56" version="1.1" xmlns="http://www.w3.org/2000/svg" xmlns:xlink="http://www.w3.org/1999/xlink">
    <title>批量选择</title>
    <g id="页面-1" stroke="none" stroke-width="1" fill="none" fill-rule="evenodd">
        <g id="全部生成成功-默认选中生成第一张" transform="translate(-662, -102)">
            <g id="批量选择" transform="translate(662, 102)">
                <rect id="Base备份" stroke="#BFBFBF" fill-opacity="0.5" fill="#FFFFFF" x="0.5" y="0.5" width="55" height="55" rx="27.5"></rect>
                <g id="编组" transform="translate(14, 14)" fill="#404040" fill-rule="nonzero">
                    <path d="M26.7076923,5.69360147 C27.4214141,5.69360147 28,6.27218733 28,6.98590916 L28,18.0923077 C28,23.5641751 23.5641751,28 18.0923077,28 L6.92683055,28 C6.21310872,28 5.63452286,27.4214141 5.63452286,26.7076923 C5.63452286,25.9939705 6.21310872,25.4153846 6.92683055,25.4153846 L18.0923077,25.4153846 C22.1367314,25.4153846 25.4153846,22.1367314 25.4153846,18.0923077 L25.4153846,6.98590916 C25.4153846,6.27218733 25.9939705,5.69360147 26.7076923,5.69360147 Z" id="路径"></path>
                    <path d="M16.3692308,0 C19.6999326,0 22.4,2.70006736 22.4,6.03076923 L22.4,16.3692308 C22.4,19.6999326 19.6999326,22.4 16.3692308,22.4 L6.03076923,22.4 C2.70006736,22.4 0,19.6999326 0,16.3692308 L0,6.03076923 C0,2.70006736 2.70006736,0 6.03076923,0 L16.3692308,0 Z M16.3692308,2.58461538 L6.03076923,2.58461538 C4.12751102,2.58461538 2.58461538,4.12751102 2.58461538,6.03076923 L2.58461538,16.3692308 C2.58461538,18.272489 4.12751102,19.8153846 6.03076923,19.8153846 L16.3692308,19.8153846 C18.272489,19.8153846 19.8153846,18.272489 19.8153846,16.3692308 L19.8153846,6.03076923 C19.8153846,4.12751102 18.272489,2.58461538 16.3692308,2.58461538 Z" id="矩形"></path>
                </g>
            </g>
        </g>
    </g>
</svg>