<?xml version="1.0" encoding="UTF-8"?>
<svg width="32px" height="32px" viewBox="0 0 32 32" version="1.1" xmlns="http://www.w3.org/2000/svg" xmlns:xlink="http://www.w3.org/1999/xlink">
    <title>right</title>
    <g id="页面-1" stroke="none" stroke-width="1" fill="none" fill-rule="evenodd">
        <g id="批量操作" transform="translate(-631, -1170)" fill-rule="nonzero">
            <g id="right" transform="translate(631, 1170)">
                <g id="编组备份-4" fill="#EE3939">
                    <path d="M15.9930199,1.5996524e-06 C7.15788777,0.00358021114 -0.00107310413,7.16762911 0,16.0021448 C0.00107310413,24.8366604 7.16289553,31.9989208 15.9976699,32.0000016 C24.8324443,32.001067 31.9956975,24.8416683 32,16.0067949 C32.0017939,11.760915 30.3159179,7.68842249 27.3136273,4.68616532 C24.3113367,1.68390816 20.2388521,-0.00189563472 15.9930199,1.5996524e-06 L15.9930199,1.5996524e-06 Z" id="形状"></path>
                </g>
                <path d="M25.1754764,11.8528055 L14.8208446,22.2000415 C14.5479843,22.4815324 14.1726906,22.6404182 13.7806598,22.6404182 C13.388629,22.6404182 13.0133354,22.4815324 12.7404751,22.2000415 L6.78266293,16.242878 C6.20808596,15.6682946 6.20808595,14.7367108 6.78266292,14.1621274 C7.35723988,13.587544 8.28881321,13.587544 8.86339018,14.1621274 L13.8014063,19.1001989 L23.1226495,9.81354832 C23.4934032,9.43730852 24.0373981,9.2887043 24.5479401,9.42419877 C25.0584821,9.55969324 25.4572041,9.95848831 25.5926093,10.4690593 C25.7280145,10.9796303 25.5793184,11.5236058 25.2030191,11.8942989 L25.1754764,11.8528055 Z" id="路径" fill="#FFFFFF"></path>
            </g>
        </g>
    </g>
</svg>