<?xml version="1.0" encoding="UTF-8"?>
<svg width="36px" height="36px" viewBox="0 0 36 36" version="1.1" xmlns="http://www.w3.org/2000/svg" xmlns:xlink="http://www.w3.org/1999/xlink">
    <title>right备份</title>
    <g id="页面-1" stroke="none" stroke-width="1" fill="none" fill-rule="evenodd">
        <g id="批量操作" transform="translate(-32, -1478)" fill-rule="nonzero">
            <g id="right备份" transform="translate(32, 1478)">
                <g id="编组备份-4" transform="translate(0, 0)" fill="#EE3939">
                    <path d="M17.9921514,1.79960923e-06 C8.05262555,0.0040277383 -0.00120724242,8.06358428 0,18.0024163 C0.00120724242,27.9412483 8.05825928,35.9987927 17.9973827,36.0000018 C27.9365061,36.0012073 35.9951678,27.9468821 36,18.0076477 C36.0020262,13.2310319 34.1054153,8.64947694 30.7278376,5.27193699 C27.3502599,1.89439704 22.7687137,-0.00213258946 17.9921514,1.79960923e-06 L17.9921514,1.79960923e-06 Z" id="形状"></path>
                </g>
                <path d="M28.3224173,13.3344087 L16.6734539,24.9750514 C16.366486,25.2917288 15.9442806,25.4704754 15.5032458,25.4704754 C15.0622111,25.4704754 14.6400056,25.2917288 14.3330377,24.9750514 L7.63049751,18.2732412 C6.98409827,17.6268348 6.98409827,16.5788028 7.6304975,15.9323964 C8.27689672,15.2859899 9.32491695,15.2859899 9.97131619,15.9323963 L15.5265856,21.4877278 L26.0129866,11.040244 C26.4300845,10.6169741 27.0420789,10.4497943 27.6164388,10.6022256 C28.1907987,10.7546569 28.6393611,11.2033015 28.7916919,11.777694 C28.9440228,12.3520864 28.7767397,12.964059 28.3534028,13.3810888 L28.3224173,13.3344087 Z" id="路径" fill="#FFFFFF"></path>
            </g>
        </g>
    </g>
</svg>