<?xml version="1.0" encoding="UTF-8"?>
<svg width="14px" height="14px" viewBox="0 0 14 14" version="1.1" xmlns="http://www.w3.org/2000/svg" xmlns:xlink="http://www.w3.org/1999/xlink">
    <title>编组 4</title>
    <g id="页面-1" stroke="none" stroke-width="1" fill="none" fill-rule="evenodd">
        <g id="忘记密码-重新设置" transform="translate(-49, -512)">
            <g id="编组-6" transform="translate(49, 498)">
                <g id="编组-4" transform="translate(0, 14)">
                    <rect id="矩形" fill-opacity="0" fill="#D8D8D8" x="0" y="0" width="14" height="14" rx="2"></rect>
                    <path d="M11.6176416,2.42162608 C11.9678317,2.06032008 12.4852802,1.91660727 12.971201,2.04772082 C13.4539828,2.17798741 13.8282413,2.558565 13.9544629,3.04245477 C14.0799248,3.52343244 13.9420836,4.03611776 13.5909853,4.38776061 L13.2580513,4.72121104 L13.2404036,4.6944591 L6.46931977,11.5749459 C6.24314256,11.8121733 5.94105783,11.9596848 5.61809988,11.992856 L5.47857183,12 C5.10394489,12 4.74631214,11.8460629 4.49188511,11.5791395 L0.401644234,7.42105208 C-0.133881405,6.87657808 -0.133881412,5.99942435 0.401644219,5.45495035 C0.944949891,4.9025663 1.83198905,4.90256629 2.37529473,5.45495033 L5.49310735,8.62500677 L11.6176416,2.42162608 Z" id="路径" fill="#299E46" fill-rule="nonzero"></path>
                </g>
            </g>
        </g>
    </g>
</svg>