<?xml version="1.0" encoding="UTF-8"?>
<svg width="28px" height="28px" viewBox="0 0 28 28" version="1.1" xmlns="http://www.w3.org/2000/svg" xmlns:xlink="http://www.w3.org/1999/xlink">
    <title>新增</title>
    <g id="页面-1" stroke="none" stroke-width="1" fill="none" fill-rule="evenodd">
        <g id="收藏夹无照片" transform="translate(-518, -116)" fill="#404040" fill-rule="nonzero">
            <g id="编组备份" transform="translate(502, 102)">
                <g id="新增" transform="translate(19.3409, 17.6591)">
                    <path d="M10.6590909,1.77635684e-15 C11.2433831,1.74057926e-15 11.7225769,0.449979265 11.7690356,1.02230087 L11.7727273,1.11363636 L11.7727273,20.2045455 C11.7727273,20.8195898 11.2741353,21.3181818 10.6590909,21.3181818 C10.0747987,21.3181818 9.59560487,20.8682026 9.54914622,20.295881 L9.54545455,20.2045455 L9.545,11.772 L1.11363636,11.7727273 C0.498591983,11.7727273 0,11.2741353 0,10.6590909 C0,10.0747987 0.449979265,9.59560487 1.02230087,9.54914622 L1.11363636,9.54545455 L9.545,9.545 L9.54545455,1.11363636 C9.54545455,0.498591983 10.0440465,1.81401745e-15 10.6590909,1.77635684e-15 Z M20.5227273,9.54545455 C21.1377717,9.54545455 21.6363636,10.0440465 21.6363636,10.6590909 C21.6363636,11.2433831 21.1863844,11.7225769 20.6140628,11.7690356 L20.5227273,11.7727273 L14.4772727,11.7727273 C13.8622283,11.7727273 13.3636364,11.2741353 13.3636364,10.6590909 C13.3636364,10.0747987 13.8136156,9.59560487 14.3859372,9.54914622 L14.4772727,9.54545455 L20.5227273,9.54545455 Z" id="形状结合"></path>
                </g>
            </g>
        </g>
    </g>
</svg>