<?xml version="1.0" encoding="UTF-8"?>
<svg width="45px" height="44px" viewBox="0 0 45 44" version="1.1" xmlns="http://www.w3.org/2000/svg" xmlns:xlink="http://www.w3.org/1999/xlink">
    <title>收藏</title>
    <g id="页面-1" stroke="none" stroke-width="1" fill="none" fill-rule="evenodd">
        <g id="收藏夹多选" transform="translate(-528, -1474)" fill="#EE3939" fill-rule="nonzero">
            <g id="编组-4" transform="translate(0, 1436)">
                <g id="编组" transform="translate(510, 20)">
                    <g id="收藏" transform="translate(18.1122, 18)">
                        <polygon id="路径" fill-opacity="0" points="0 0 44 0 44 44 0 44"></polygon>
                        <path d="M22.8421667,8.09218601 C26.1248945,5.68412392 30.4827186,5.32632439 34.114264,7.16668948 C37.7458093,9.00705456 40.034138,12.7329375 40.0334787,16.804186 C40.0334787,22.0475193 36.957,26.8765193 33.3141667,30.554186 C29.6566667,34.2483527 25.1925,37.022186 21.9511667,38.100186 C21.6696778,38.1937209 21.3654889,38.1937209 21.084,38.100186 C17.8408333,37.022186 13.3766667,34.2483527 9.71916667,30.554186 C6.07633333,26.8765193 3,22.0475193 3,16.804186 C3.00048619,13.9393175 4.13901708,11.1919796 6.16512887,9.16655549 C8.19124065,7.14113133 10.9389648,6.00353307 13.8038333,6.00218601 C16.2375137,5.9990017 18.6003663,6.82108828 20.5065,8.33418601 C20.8632654,8.65811574 21.2005889,9.00095439 21.5167325,9.36271344 L21.384,9.217 Z M21.384,9.217 L21.286253,9.29297543 L22.364,10.464 L22.426,10.4260193 C22.118,10.077686 21.92,9.83935268 21.7605,9.65051934 C21.6807148,9.55331058 21.5994486,9.4573644 21.5167325,9.36271344 L21.384,9.217 Z" id="形状结合"></path>
                    </g>
                </g>
            </g>
        </g>
    </g>
</svg>