<?xml version="1.0" encoding="UTF-8"?>
<svg width="32px" height="32px" viewBox="0 0 32 32" version="1.1" xmlns="http://www.w3.org/2000/svg" xmlns:xlink="http://www.w3.org/1999/xlink">
    <title>加购</title>
    <g id="页面-1" stroke="none" stroke-width="1" fill="none" fill-rule="evenodd">
        <g id="收藏夹多选" transform="translate(-422, -1480)" fill="#404040" fill-rule="nonzero">
            <g id="编组-4" transform="translate(0, 1436)">
                <g id="按钮/主按钮/大备份" transform="translate(398, 20)">
                    <g id="编组备份" transform="translate(24, 24)">
                        <path d="M10.1302857,14.2986425 C10.6657235,13.7693151 11.5331336,13.7693151 12.0685714,14.2986425 L15.7805714,17.9728507 L19.4925714,14.2986425 C20.0329321,13.8002553 20.8749893,13.814961 21.3972515,14.331906 C21.9195137,14.8488511 21.9343707,15.6823353 21.4308571,16.2171946 L16.7497143,20.8506788 C16.2142765,21.3800061 15.3468664,21.3800061 14.8114286,20.8506788 L10.1302857,16.2171946 C9.59551381,15.6872081 9.59551381,14.828629 10.1302857,14.2986425 Z" id="路径"></path>
                        <path d="M15.7805714,0 C16.5379905,0 17.152,0.607758259 17.152,1.35746606 L17.152,19.7647059 C17.152,20.5144137 16.5379905,21.122172 15.7805714,21.122172 C15.0231523,21.122172 14.4091429,20.5144137 14.4091429,19.7647059 L14.4091429,1.35746606 C14.4091429,0.607758259 15.0231523,0 15.7805714,0 Z" id="路径"></path>
                        <path d="M1.37142857,14.8054299 C2.12884766,14.8054299 2.74285715,15.4131881 2.74285715,16.1628959 C2.74285715,19.8552036 4.00640002,23.1294118 6.25188571,25.4678733 C8.48457142,27.7954751 11.7741714,29.2850679 16,29.2850679 C20.2276571,29.2850679 23.5154286,27.7954751 25.7481143,25.4678733 C27.9936,23.1294118 29.2571429,19.8570135 29.2571429,16.1628959 C29.2571429,15.4131881 29.8711523,14.8054299 30.6285714,14.8054299 C31.3859905,14.8054299 32,15.4131881 32,16.1628959 C32,20.4705883 30.5206857,24.4361991 27.7376,27.3375566 C24.9435428,30.2497738 20.9170285,32 16,32 C11.0848,32 7.05828571,30.2497737 4.2624,27.3375566 C1.48114286,24.4361991 0,20.4687783 0,16.1628959 C0,15.4131881 0.614009486,14.8054299 1.37142857,14.8054299 Z" id="路径"></path>
                    </g>
                </g>
            </g>
        </g>
    </g>
</svg>