<?xml version="1.0" encoding="UTF-8"?>
<svg width="28px" height="28px" viewBox="0 0 28 28" version="1.1" xmlns="http://www.w3.org/2000/svg" xmlns:xlink="http://www.w3.org/1999/xlink">
    <title>编组</title>
    <g id="页面-1" stroke="none" stroke-width="1" fill="none" fill-rule="evenodd">
        <g id="查看收藏夹备份" transform="translate(-456, -200)" fill="#404040" fill-rule="nonzero">
            <g id="编组-4" transform="translate(432, 174)">
                <g id="编组" transform="translate(24, 26)">
                    <path d="M1.21861996,7.26888141 C1.99961394,6.4882749 3.05875435,6.04992786 4.1629875,6.0502941 L5.67680116,6.0502941 C6.3038433,6.0502941 6.81216139,6.5585987 6.81216139,7.18562393 C6.81216139,7.81264916 6.3038433,8.32095354 5.67680116,8.32095354 L4.1629875,8.32095354 C3.11791727,8.32095354 2.27072046,9.16812749 2.27072046,10.2131695 L2.27072046,23.8371248 C2.27072046,24.8821668 3.11791727,25.7293408 4.1629875,25.7293408 L17.7873103,25.7293408 C18.8323805,25.7293408 19.6795773,24.8821668 19.6795773,23.8371248 L19.6795773,22.323352 C19.6795773,21.6963267 20.1878954,21.1880224 20.8149376,21.1880224 C21.4419797,21.1880224 21.9502978,21.6963267 21.9502978,22.323352 L21.9502978,23.8371248 C21.9502978,26.1362173 20.0864648,28 17.7873103,28 L4.1629875,28 C1.86383299,28 0,26.1362173 0,23.8371248 L0,10.2131695 C0,9.10811537 0.439005944,8.04998818 1.21861996,7.26888141 Z" id="路径"></path>
                    <path d="M20.640849,1.25768961 C22.3265191,-0.421392896 25.0533613,-0.418911144 26.7359721,1.2632369 C28.418583,2.94538494 28.4217413,5.67215285 26.7430318,7.35819403 L26.7430318,7.35970778 L24.8023227,9.30793338 C24.7129775,9.44793799 24.5941539,9.56675834 24.4541456,9.65610115 L14.0497044,20.0965922 C13.836865,20.310495 13.5476265,20.4308716 13.2458694,20.431136 L8.70442843,20.431136 C8.07738629,20.431136 7.5690682,19.9228316 7.5690682,19.2958064 L7.5690682,14.754488 C7.5690682,14.4517334 7.69017328,14.1641166 7.90210721,13.9506746 L18.3443937,3.54651409 C18.4336239,3.40641718 18.5524702,3.28757418 18.6925709,3.19834636 L20.640849,1.25768961 Z M19.3192897,5.78084275 L9.83978866,15.2267851 L9.83978866,18.1604768 L12.7750733,18.1604768 L22.2197566,8.68123144 L19.3192897,5.78084275 Z M23.8228853,7.07360472 L20.9269598,4.17775735 L22.2454914,2.86380254 C22.7619875,2.34732046 23.5147968,2.14561124 24.2203435,2.3346568 C24.9258902,2.52370237 25.4769849,3.0747822 25.6660355,3.78030985 C25.8550862,4.4858375 25.6533715,5.23862654 25.1368755,5.75510863 L25.9391967,6.5574082 L25.1353617,5.75510863 L23.8228853,7.07209097 L23.8228853,7.07360472 Z" id="形状"></path>
                </g>
            </g>
        </g>
    </g>
</svg>