<svg xmlns="http://www.w3.org/2000/svg" width="36" height="36" viewBox="0 0 36 36" fill="none">
  <path d="M18 11.25C19.2426 11.25 20.25 10.2426 20.25 9C20.25 7.75736 19.2426 6.75 18 6.75C16.7574 6.75 15.75 7.75736 15.75 9C15.75 10.2426 16.7574 11.25 18 11.25Z" fill="#333333"/>
  <path d="M18 20.25C19.2426 20.25 20.25 19.2426 20.25 18C20.25 16.7574 19.2426 15.75 18 15.75C16.7574 15.75 15.75 16.7574 15.75 18C15.75 19.2426 16.7574 20.25 18 20.25Z" fill="#333333"/>
  <path d="M18 28.5C19.2426 28.5 20.25 27.4926 20.25 26.25C20.25 25.0074 19.2426 24 18 24C16.7574 24 15.75 25.0074 15.75 26.25C15.75 27.4926 16.7574 28.5 18 28.5Z" fill="#333333"/>
</svg>